<?xml version="1.0" encoding="UTF-8" standalone="no"?>
<!DOCTYPE svg PUBLIC "-//W3C//DTD SVG 1.1//EN"
 "http://www.w3.org/Graphics/SVG/1.1/DTD/svg11.dtd">
<!-- Generated by graphviz version 13.1.1 (0)
 -->
<!-- Title: G Pages: 1 -->
<svg width="787pt" height="596pt"
 viewBox="0.00 0.00 787.00 596.00" xmlns="http://www.w3.org/2000/svg" xmlns:xlink="http://www.w3.org/1999/xlink">
<g id="graph0" class="graph" transform="scale(1 1) rotate(0) translate(4 592)">
<title>G</title>
<polygon fill="white" stroke="none" points="-4,4 -4,-592 782.8,-592 782.8,4 -4,4"/>
<g id="clust1" class="cluster">
<title>cluster_family_0</title>
<polygon fill="#fafafa" stroke="#fafafa" points="289.4,-153 289.4,-344 770.8,-344 770.8,-153 289.4,-153"/>
<text xml:space="preserve" text-anchor="start" x="297.4" y="-326.6" font-family="Helvetica, Arial, sans-serif" font-weight="bold" font-size="16.00">The Frat House Femly</text>
</g>
<g id="clust4" class="cluster">
<title>cluster_family_1</title>
<polygon fill="#fafafa" stroke="#fafafa" points="289.4,-497 289.4,-580 770.8,-580 770.8,-497 289.4,-497"/>
<text xml:space="preserve" text-anchor="start" x="297.4" y="-562.6" font-family="Helvetica, Arial, sans-serif" font-weight="bold" font-size="16.00">The Pretend Family</text>
</g>
<g id="clust7" class="cluster">
<title>cluster_family_2</title>
<polygon fill="#fafafa" stroke="#fafafa" points="289.4,-8 289.4,-145 561.8,-145 561.8,-8 289.4,-8"/>
<text xml:space="preserve" text-anchor="start" x="297.4" y="-127.6" font-family="Helvetica, Arial, sans-serif" font-weight="bold" font-size="16.00">Claire Trying to Adopt Minerva</text>
</g>
<g id="clust10" class="cluster">
<title>cluster_family_3</title>
<polygon fill="#fafafa" stroke="#fafafa" points="8,-134 8,-271 280.4,-271 280.4,-134 8,-134"/>
<text xml:space="preserve" text-anchor="start" x="16" y="-253.6" font-family="Helvetica, Arial, sans-serif" font-weight="bold" font-size="16.00">The Baas Family (Minimal)</text>
</g>
<g id="clust14" class="cluster">
<title>cluster_family_4</title>
<polygon fill="#fafafa" stroke="#fafafa" points="498.4,-352 498.4,-489 770.8,-489 770.8,-352 498.4,-352"/>
<text xml:space="preserve" text-anchor="start" x="506.4" y="-471.6" font-family="Helvetica, Arial, sans-serif" font-weight="bold" font-size="16.00">The SCU Children</text>
</g>
<!-- union_0 -->
<g id="node1" class="node">
<title>union_0</title>
<ellipse fill="#d25252" stroke="#cccccc" cx="512" cy="-235" rx="3.6" ry="3.6"/>
</g>
<!-- siblings_0 -->
<g id="node5" class="node">
<title>siblings_0</title>
<polygon fill="#d25252" stroke="#cccccc" stroke-width="0" points="551.8,-235.72 544.6,-235.72 544.6,-234.28 551.8,-234.28 551.8,-235.72"/>
</g>
<!-- union_0&#45;&gt;siblings_0 -->
<g id="edge4" class="edge">
<title>union_0&#45;&gt;siblings_0</title>
<path fill="none" stroke="#d25252" d="M515.87,-235C523.02,-235 538.17,-235 544.88,-235"/>
</g>
<!-- Mackenzie Hayes -->
<g id="node2" class="node">
<title>Mackenzie Hayes</title>
<g id="a_node2"><a xlink:title="undefined &#10;&#10;">
<polygon fill="white" stroke="#cccccc" points="479.4,-307 299.4,-307 299.4,-271 479.4,-271 479.4,-307"/>
<text xml:space="preserve" text-anchor="middle" x="389.4" y="-284.8" font-family="Helvetica, Arial, sans-serif" font-size="14.00">Mackenzie Hayes</text>
</a>
</g>
</g>
<!-- Mackenzie Hayes&#45;&gt;union_0 -->
<g id="edge1" class="edge">
<title>Mackenzie Hayes&#45;&gt;union_0</title>
<path fill="none" stroke="#d25252" d="M479.73,-289C498.55,-289 512.8,-289 512.8,-289 512.8,-289 512.8,-251.27 512.8,-238.88"/>
</g>
<!-- union_1 -->
<g id="node7" class="node">
<title>union_1</title>
<ellipse fill="#ccdf32" stroke="#cccccc" cx="512" cy="-525" rx="3.6" ry="3.6"/>
</g>
<!-- Mackenzie Hayes&#45;&gt;union_1 -->
<g id="edge6" class="edge">
<title>Mackenzie Hayes&#45;&gt;union_1</title>
<path fill="none" stroke="#ccdf32" stroke-dasharray="5,2" d="M479.72,-280C488.25,-280 493.8,-280 493.8,-280 493.8,-280 493.8,-523.8 493.8,-523.8 493.8,-523.8 502.8,-523.8 508.14,-523.8"/>
</g>
<!-- union_4 -->
<g id="node19" class="node">
<title>union_4</title>
<ellipse fill="#6897bb" stroke="#cccccc" cx="512" cy="-380" rx="3.6" ry="3.6"/>
</g>
<!-- Mackenzie Hayes&#45;&gt;union_4 -->
<g id="edge19" class="edge">
<title>Mackenzie Hayes&#45;&gt;union_4</title>
<path fill="none" stroke="#6897bb" stroke-dasharray="5,2" d="M479.85,-298C497.57,-298 510.8,-298 510.8,-298 510.8,-298 510.8,-360.78 510.8,-376.48"/>
</g>
<!-- Daisy Dukakis -->
<g id="node3" class="node">
<title>Daisy Dukakis</title>
<polygon fill="white" stroke="#cccccc" points="479.4,-199 299.4,-199 299.4,-163 479.4,-163 479.4,-199"/>
<text xml:space="preserve" text-anchor="middle" x="389.4" y="-176.8" font-family="Helvetica, Arial, sans-serif" font-size="14.00">Daisy Dukakis</text>
</g>
<!-- Daisy Dukakis&#45;&gt;union_0 -->
<g id="edge2" class="edge">
<title>Daisy Dukakis&#45;&gt;union_0</title>
<path fill="none" stroke="#d25252" d="M479.64,-181C497.99,-181 511.8,-181 511.8,-181 511.8,-181 511.8,-218.73 511.8,-231.12"/>
</g>
<!-- Anita May -->
<g id="node4" class="node">
<title>Anita May</title>
<polygon fill="white" stroke="#cccccc" points="479.4,-253 299.4,-253 299.4,-217 479.4,-217 479.4,-253"/>
<text xml:space="preserve" text-anchor="middle" x="389.4" y="-230.8" font-family="Helvetica, Arial, sans-serif" font-size="14.00">Anita May</text>
</g>
<!-- Anita May&#45;&gt;union_0 -->
<g id="edge3" class="edge">
<title>Anita May&#45;&gt;union_0</title>
<path fill="none" stroke="#d25252" d="M479.79,-235C492.42,-235 502.91,-235 508.23,-235"/>
</g>
<!-- Minerva Maat -->
<g id="node6" class="node">
<title>Minerva Maat</title>
<g id="a_node6"><a xlink:title="undefined &#10;&#10;">
<polygon fill="white" stroke="#cccccc" points="760.8,-253 580.8,-253 580.8,-217 760.8,-217 760.8,-253"/>
<text xml:space="preserve" text-anchor="middle" x="670.8" y="-230.8" font-family="Helvetica, Arial, sans-serif" font-size="14.00">Minerva Maat</text>
</a>
</g>
</g>
<!-- siblings_0&#45;&gt;Minerva Maat -->
<g id="edge5" class="edge">
<title>siblings_0&#45;&gt;Minerva Maat</title>
<path fill="none" stroke="#d25252" d="M551.74,-235C551.74,-235 570.54,-235 570.54,-235"/>
<polygon fill="#d25252" stroke="#d25252" points="578.54,-225 578.54,-245 574.54,-245 574.54,-225 578.54,-225"/>
<polyline fill="none" stroke="#d25252" points="580.54,-235 570.54,-235"/>
</g>
<!-- siblings_1 -->
<g id="node9" class="node">
<title>siblings_1</title>
<polygon fill="#ccdf32" stroke="#cccccc" stroke-width="0" points="551.8,-525.72 544.6,-525.72 544.6,-524.28 551.8,-524.28 551.8,-525.72"/>
</g>
<!-- union_1&#45;&gt;siblings_1 -->
<g id="edge8" class="edge">
<title>union_1&#45;&gt;siblings_1</title>
<path fill="none" stroke="#ccdf32" d="M515.87,-525C523.02,-525 538.17,-525 544.88,-525"/>
</g>
<!-- Jeffrey Price -->
<g id="node8" class="node">
<title>Jeffrey Price</title>
<g id="a_node8"><a xlink:title="undefined &#10;&#10;">
<polygon fill="white" stroke="#cccccc" points="479.4,-543 299.4,-543 299.4,-507 479.4,-507 479.4,-543"/>
<text xml:space="preserve" text-anchor="middle" x="389.4" y="-520.8" font-family="Helvetica, Arial, sans-serif" font-size="14.00">Jeffrey Price</text>
</a>
</g>
</g>
<!-- Jeffrey Price&#45;&gt;union_1 -->
<g id="edge7" class="edge">
<title>Jeffrey Price&#45;&gt;union_1</title>
<path fill="none" stroke="#ccdf32" stroke-dasharray="5,2" d="M479.79,-526.2C492.42,-526.2 502.91,-526.2 508.23,-526.2"/>
</g>
<!-- Alexandria Bennett -->
<g id="node10" class="node">
<title>Alexandria Bennett</title>
<g id="a_node10"><a xlink:title="undefined &#10;&#10;">
<polygon fill="white" stroke="#cccccc" points="760.8,-543 580.8,-543 580.8,-507 760.8,-507 760.8,-543"/>
<text xml:space="preserve" text-anchor="middle" x="670.8" y="-520.8" font-family="Helvetica, Arial, sans-serif" font-size="14.00">Alexandria Bennett</text>
</a>
</g>
</g>
<!-- siblings_1&#45;&gt;Alexandria Bennett -->
<g id="edge9" class="edge">
<title>siblings_1&#45;&gt;Alexandria Bennett</title>
<path fill="none" stroke="#ccdf32" d="M551.74,-525C551.74,-525 570.54,-525 570.54,-525"/>
<polygon fill="#ccdf32" stroke="#ccdf32" points="578.54,-515 578.54,-535 574.54,-535 574.54,-515 578.54,-515"/>
<polyline fill="none" stroke="#ccdf32" points="580.54,-525 570.54,-525"/>
</g>
<!-- union_2 -->
<g id="node11" class="node">
<title>union_2</title>
<ellipse fill="#629755" stroke="#cccccc" cx="512" cy="-90" rx="3.6" ry="3.6"/>
</g>
<!-- siblings_2 -->
<g id="node14" class="node">
<title>siblings_2</title>
<polygon fill="#629755" stroke="#cccccc" stroke-width="0" points="551.8,-90.72 544.6,-90.72 544.6,-89.28 551.8,-89.28 551.8,-90.72"/>
</g>
<!-- union_2&#45;&gt;siblings_2 -->
<g id="edge12" class="edge">
<title>union_2&#45;&gt;siblings_2</title>
<path fill="none" stroke="#629755" d="M515.87,-90C523.02,-90 538.17,-90 544.88,-90"/>
</g>
<!-- Claire Everly -->
<g id="node12" class="node">
<title>Claire Everly</title>
<polygon fill="white" stroke="#cccccc" points="479.4,-54 299.4,-54 299.4,-18 479.4,-18 479.4,-54"/>
<text xml:space="preserve" text-anchor="middle" x="389.4" y="-31.8" font-family="Helvetica, Arial, sans-serif" font-size="14.00">Claire Everly</text>
</g>
<!-- Claire Everly&#45;&gt;union_2 -->
<g id="edge10" class="edge">
<title>Claire Everly&#45;&gt;union_2</title>
<path fill="none" stroke="#629755" d="M479.64,-36C497.99,-36 511.8,-36 511.8,-36 511.8,-36 511.8,-73.73 511.8,-86.12"/>
</g>
<!-- Mina Price -->
<g id="node13" class="node">
<title>Mina Price</title>
<polygon fill="white" stroke="#cccccc" points="479.4,-108 299.4,-108 299.4,-72 479.4,-72 479.4,-108"/>
<text xml:space="preserve" text-anchor="middle" x="389.4" y="-85.8" font-family="Helvetica, Arial, sans-serif" font-size="14.00">Mina Price</text>
</g>
<!-- Mina Price&#45;&gt;union_2 -->
<g id="edge11" class="edge">
<title>Mina Price&#45;&gt;union_2</title>
<path fill="none" stroke="#629755" d="M479.79,-90C492.42,-90 502.91,-90 508.23,-90"/>
</g>
<!-- siblings_2&#45;&gt;Minerva Maat -->
<g id="edge13" class="edge">
<title>siblings_2&#45;&gt;Minerva Maat</title>
<path fill="none" stroke="#629755" stroke-dasharray="5,2" d="M547.8,-90.38C547.8,-98.26 547.8,-224.2 547.8,-224.2 547.8,-224.2 570.44,-224.2 570.44,-224.2"/>
<polygon fill="#629755" stroke="#629755" points="578.44,-214.2 578.44,-234.2 574.44,-234.2 574.44,-214.2 578.44,-214.2"/>
<polyline fill="none" stroke="#629755" points="580.44,-224.2 570.44,-224.2"/>
</g>
<!-- union_3 -->
<g id="node15" class="node">
<title>union_3</title>
<ellipse fill="#cc7832" stroke="#cccccc" cx="230.6" cy="-162" rx="3.6" ry="3.6"/>
</g>
<!-- siblings_3 -->
<g id="node18" class="node">
<title>siblings_3</title>
<polygon fill="#cc7832" stroke="#cccccc" stroke-width="0" points="270.4,-162.72 263.2,-162.72 263.2,-161.28 270.4,-161.28 270.4,-162.72"/>
</g>
<!-- union_3&#45;&gt;siblings_3 -->
<g id="edge16" class="edge">
<title>union_3&#45;&gt;siblings_3</title>
<path fill="none" stroke="#cc7832" d="M234.47,-162C241.62,-162 256.77,-162 263.48,-162"/>
</g>
<!-- Sam Baas -->
<g id="node16" class="node">
<title>Sam Baas</title>
<polygon fill="white" stroke="#cccccc" points="198,-180 18,-180 18,-144 198,-144 198,-180"/>
<text xml:space="preserve" text-anchor="middle" x="108" y="-157.8" font-family="Helvetica, Arial, sans-serif" font-size="14.00">Sam Baas</text>
</g>
<!-- Sam Baas&#45;&gt;union_3 -->
<g id="edge14" class="edge">
<title>Sam Baas&#45;&gt;union_3</title>
<path fill="none" stroke="#cc7832" d="M198.39,-162C211.02,-162 221.51,-162 226.83,-162"/>
</g>
<!-- Dante Wolf -->
<g id="node17" class="node">
<title>Dante Wolf</title>
<polygon fill="white" stroke="#cccccc" points="198,-234 18,-234 18,-198 198,-198 198,-234"/>
<text xml:space="preserve" text-anchor="middle" x="108" y="-211.8" font-family="Helvetica, Arial, sans-serif" font-size="14.00">Dante Wolf</text>
</g>
<!-- Dante Wolf&#45;&gt;union_3 -->
<g id="edge15" class="edge">
<title>Dante Wolf&#45;&gt;union_3</title>
<path fill="none" stroke="#cc7832" stroke-dasharray="5,2" d="M198.21,-208C216.78,-208 230.8,-208 230.8,-208 230.8,-208 230.8,-177.05 230.8,-165.92"/>
</g>
<!-- siblings_3&#45;&gt;Anita May -->
<g id="edge17" class="edge">
<title>siblings_3&#45;&gt;Anita May</title>
<path fill="none" stroke="#cc7832" d="M266.8,-162.71C266.8,-169.69 266.8,-225.5 266.8,-225.5 266.8,-225.5 289.01,-225.5 289.01,-225.5"/>
<polygon fill="#cc7832" stroke="#cc7832" points="297.01,-215.5 297.01,-235.5 293.01,-235.5 293.01,-215.5 297.01,-215.5"/>
<polyline fill="none" stroke="#cc7832" points="299.01,-225.5 289.01,-225.5"/>
</g>
<!-- siblings_3&#45;&gt;Mina Price -->
<g id="edge18" class="edge">
<title>siblings_3&#45;&gt;Mina Price</title>
<path fill="none" stroke="#cc7832" d="M266.8,-161.54C266.8,-155.41 266.8,-90 266.8,-90 266.8,-90 289.01,-90 289.01,-90"/>
<polygon fill="#cc7832" stroke="#cc7832" points="297.01,-80 297.01,-100 293.01,-100 293.01,-80 297.01,-80"/>
<polyline fill="none" stroke="#cc7832" points="299.01,-90 289.01,-90"/>
</g>
<!-- siblings_4 -->
<g id="node20" class="node">
<title>siblings_4</title>
<polygon fill="#6897bb" stroke="#cccccc" stroke-width="0" points="551.8,-380.72 544.6,-380.72 544.6,-379.28 551.8,-379.28 551.8,-380.72"/>
</g>
<!-- union_4&#45;&gt;siblings_4 -->
<g id="edge20" class="edge">
<title>union_4&#45;&gt;siblings_4</title>
<path fill="none" stroke="#6897bb" d="M515.87,-380C523.02,-380 538.17,-380 544.88,-380"/>
</g>
<!-- Winston Walker -->
<g id="node21" class="node">
<title>Winston Walker</title>
<polygon fill="white" stroke="#cccccc" points="760.8,-398 580.8,-398 580.8,-362 760.8,-362 760.8,-398"/>
<text xml:space="preserve" text-anchor="middle" x="670.8" y="-375.8" font-family="Helvetica, Arial, sans-serif" font-size="14.00">Winston Walker</text>
</g>
<!-- siblings_4&#45;&gt;Winston Walker -->
<g id="edge21" class="edge">
<title>siblings_4&#45;&gt;Winston Walker</title>
<path fill="none" stroke="#6897bb" stroke-dasharray="5,2" d="M551.74,-380C551.74,-380 570.54,-380 570.54,-380"/>
<polygon fill="#6897bb" stroke="#6897bb" points="578.54,-370 578.54,-390 574.54,-390 574.54,-370 578.54,-370"/>
<polyline fill="none" stroke="#6897bb" points="580.54,-380 570.54,-380"/>
</g>
<!-- Flop Dugong -->
<g id="node22" class="node">
<title>Flop Dugong</title>
<polygon fill="white" stroke="#cccccc" points="760.8,-452 580.8,-452 580.8,-416 760.8,-416 760.8,-452"/>
<text xml:space="preserve" text-anchor="middle" x="670.8" y="-429.8" font-family="Helvetica, Arial, sans-serif" font-size="14.00">Flop Dugong</text>
</g>
<!-- siblings_4&#45;&gt;Flop Dugong -->
<g id="edge22" class="edge">
<title>siblings_4&#45;&gt;Flop Dugong</title>
<path fill="none" stroke="#6897bb" stroke-dasharray="5,2" d="M547.8,-380.61C547.8,-386.54 547.8,-434 547.8,-434 547.8,-434 570.44,-434 570.44,-434"/>
<polygon fill="#6897bb" stroke="#6897bb" points="578.44,-424 578.44,-444 574.44,-444 574.44,-424 578.44,-424"/>
<polyline fill="none" stroke="#6897bb" points="580.44,-434 570.44,-434"/>
</g>
<!-- Balto Connelly -->
<g id="node23" class="node">
<title>Balto Connelly</title>
<g id="a_node23"><a xlink:title="undefined &#10;&#10;">
<polygon fill="white" stroke="#cccccc" points="198,-317 18,-317 18,-281 198,-281 198,-317"/>
<text xml:space="preserve" text-anchor="middle" x="108" y="-294.8" font-family="Helvetica, Arial, sans-serif" font-size="14.00">Balto Connelly</text>
</a>
</g>
</g>
</g>
</svg>
