<?xml version="1.0" encoding="UTF-8" standalone="no"?>
<!DOCTYPE svg PUBLIC "-//W3C//DTD SVG 1.1//EN"
 "http://www.w3.org/Graphics/SVG/1.1/DTD/svg11.dtd">
<!-- Generated by graphviz version 2.43.0 (0)
 -->
<!-- Title: G Pages: 1 -->
<svg width="786pt" height="592pt"
 viewBox="0.00 0.00 786.00 592.00" xmlns="http://www.w3.org/2000/svg" xmlns:xlink="http://www.w3.org/1999/xlink">
<g id="graph0" class="graph" transform="scale(1 1) rotate(0) translate(4 588)">
<title>G</title>
<polygon fill="white" stroke="transparent" points="-4,4 -4,-588 782,-588 782,4 -4,4"/>
<g id="clust1" class="cluster">
<title>cluster_family_0</title>
<polygon fill="#fafafa" stroke="#fafafa" points="289,-152 289,-342 770,-342 770,-152 289,-152"/>
<text text-anchor="start" x="297" y="-326.2" font-family="Helvetica, Arial, sans-serif" font-weight="bold" font-size="16.00">The Frat House Femly</text>
</g>
<g id="clust4" class="cluster">
<title>cluster_family_1</title>
<polygon fill="#fafafa" stroke="#fafafa" points="289,-494 289,-576 770,-576 770,-494 289,-494"/>
<text text-anchor="start" x="297" y="-560.2" font-family="Helvetica, Arial, sans-serif" font-weight="bold" font-size="16.00">The Pretend Family</text>
</g>
<g id="clust7" class="cluster">
<title>cluster_family_2</title>
<polygon fill="#fafafa" stroke="#fafafa" points="289,-8 289,-144 561,-144 561,-8 289,-8"/>
<text text-anchor="start" x="297" y="-128.2" font-family="Helvetica, Arial, sans-serif" font-weight="bold" font-size="16.00">Claire Trying to Adopt Minerva</text>
</g>
<g id="clust10" class="cluster">
<title>cluster_family_3</title>
<polygon fill="#fafafa" stroke="#fafafa" points="8,-53 8,-189 280,-189 280,-53 8,-53"/>
<text text-anchor="start" x="16" y="-173.2" font-family="Helvetica, Arial, sans-serif" font-weight="bold" font-size="16.00">The Baas Family (Minimal)</text>
</g>
<g id="clust14" class="cluster">
<title>cluster_family_4</title>
<polygon fill="#fafafa" stroke="#fafafa" points="498,-350 498,-486 770,-486 770,-350 498,-350"/>
<text text-anchor="start" x="506" y="-470.2" font-family="Helvetica, Arial, sans-serif" font-weight="bold" font-size="16.00">The SCU Children</text>
</g>
<!-- union_0 -->
<g id="node1" class="node">
<title>union_0</title>
<ellipse fill="#d25252" stroke="#cccccc" cx="511.5" cy="-220" rx="3.5" ry="3.5"/>
</g>
<!-- siblings_0 -->
<g id="node5" class="node">
<title>siblings_0</title>
<polygon fill="#d25252" stroke="#cccccc" stroke-width="0" points="551,-220.5 544,-220.5 544,-219.5 551,-219.5 551,-220.5"/>
</g>
<!-- union_0&#45;&gt;siblings_0 -->
<g id="edge4" class="edge">
<title>union_0&#45;&gt;siblings_0</title>
<path fill="none" stroke="#d25252" d="M515.08,-220C521.91,-220 536.73,-220 543.72,-220"/>
</g>
<!-- Mackenzie Hayes -->
<g id="node2" class="node">
<title>Mackenzie Hayes</title>
<polygon fill="white" stroke="#cccccc" points="479,-306 299,-306 299,-270 479,-270 479,-306"/>
<text text-anchor="middle" x="389" y="-284.3" font-family="Helvetica, Arial, sans-serif" font-size="14.00">Mackenzie Hayes</text>
</g>
<!-- Mackenzie Hayes&#45;&gt;union_0 -->
<g id="edge1" class="edge">
<title>Mackenzie Hayes&#45;&gt;union_0</title>
<path fill="none" stroke="#d25252" d="M479.12,-288C498.35,-288 513,-288 513,-288 513,-288 513,-236.86 513,-223.28"/>
</g>
<!-- union_1 -->
<g id="node7" class="node">
<title>union_1</title>
<ellipse fill="#ccdf32" stroke="#cccccc" cx="511.5" cy="-522" rx="3.5" ry="3.5"/>
</g>
<!-- Mackenzie Hayes&#45;&gt;union_1 -->
<g id="edge6" class="edge">
<title>Mackenzie Hayes&#45;&gt;union_1</title>
<path fill="none" stroke="#ccdf32" stroke-dasharray="5,2" d="M479.4,-279C488.23,-279 494,-279 494,-279 494,-279 494,-520.83 494,-520.83 494,-520.83 503.04,-520.83 508.13,-520.83"/>
</g>
<!-- union_4 -->
<g id="node19" class="node">
<title>union_4</title>
<ellipse fill="#6897bb" stroke="#cccccc" cx="511.5" cy="-378" rx="3.5" ry="3.5"/>
</g>
<!-- Mackenzie Hayes&#45;&gt;union_4 -->
<g id="edge19" class="edge">
<title>Mackenzie Hayes&#45;&gt;union_4</title>
<path fill="none" stroke="#6897bb" stroke-dasharray="5,2" d="M479.26,-297C497.39,-297 511,-297 511,-297 511,-297 511,-359.02 511,-374.52"/>
</g>
<!-- Daisy Dukakis -->
<g id="node3" class="node">
<title>Daisy Dukakis</title>
<polygon fill="white" stroke="#cccccc" points="479,-252 299,-252 299,-216 479,-216 479,-252"/>
<text text-anchor="middle" x="389" y="-230.3" font-family="Helvetica, Arial, sans-serif" font-size="14.00">Daisy Dukakis</text>
</g>
<!-- Daisy Dukakis&#45;&gt;union_0 -->
<g id="edge2" class="edge">
<title>Daisy Dukakis&#45;&gt;union_0</title>
<path fill="none" stroke="#d25252" d="M479.31,-220C491.94,-220 502.42,-220 507.73,-220"/>
</g>
<!-- Anita May -->
<g id="node4" class="node">
<title>Anita May</title>
<polygon fill="white" stroke="#cccccc" points="479,-198 299,-198 299,-162 479,-162 479,-198"/>
<text text-anchor="middle" x="389" y="-176.3" font-family="Helvetica, Arial, sans-serif" font-size="14.00">Anita May</text>
</g>
<!-- Anita May&#45;&gt;union_0 -->
<g id="edge3" class="edge">
<title>Anita May&#45;&gt;union_0</title>
<path fill="none" stroke="#d25252" d="M479.04,-195C497.79,-195 512,-195 512,-195 512,-195 512,-209.65 512,-216.52"/>
</g>
<!-- Minerva Maat -->
<g id="node6" class="node">
<title>Minerva Maat</title>
<polygon fill="white" stroke="#cccccc" points="760,-225 580,-225 580,-189 760,-189 760,-225"/>
<text text-anchor="middle" x="670" y="-203.3" font-family="Helvetica, Arial, sans-serif" font-size="14.00">Minerva Maat</text>
</g>
<!-- siblings_0&#45;&gt;Minerva Maat -->
<g id="edge5" class="edge">
<title>siblings_0&#45;&gt;Minerva Maat</title>
<path fill="none" stroke="#d25252" d="M551.03,-220C551.03,-220 569.81,-220 569.81,-220"/>
<polygon fill="#d25252" stroke="#d25252" points="577.81,-210 577.81,-230 573.81,-230 573.81,-210 577.81,-210"/>
<polyline fill="none" stroke="#d25252" points="579.81,-220 569.81,-220 "/>
</g>
<!-- siblings_1 -->
<g id="node9" class="node">
<title>siblings_1</title>
<polygon fill="#ccdf32" stroke="#cccccc" stroke-width="0" points="551,-522.5 544,-522.5 544,-521.5 551,-521.5 551,-522.5"/>
</g>
<!-- union_1&#45;&gt;siblings_1 -->
<g id="edge8" class="edge">
<title>union_1&#45;&gt;siblings_1</title>
<path fill="none" stroke="#ccdf32" d="M515.08,-522C521.91,-522 536.73,-522 543.72,-522"/>
</g>
<!-- Jeffrey Price -->
<g id="node8" class="node">
<title>Jeffrey Price</title>
<polygon fill="white" stroke="#cccccc" points="479,-540 299,-540 299,-504 479,-504 479,-540"/>
<text text-anchor="middle" x="389" y="-518.3" font-family="Helvetica, Arial, sans-serif" font-size="14.00">Jeffrey Price</text>
</g>
<!-- Jeffrey Price&#45;&gt;union_1 -->
<g id="edge7" class="edge">
<title>Jeffrey Price&#45;&gt;union_1</title>
<path fill="none" stroke="#ccdf32" stroke-dasharray="5,2" d="M479.31,-523.17C492.22,-523.17 502.89,-523.17 508.09,-523.17"/>
</g>
<!-- Alexandria Bennett -->
<g id="node10" class="node">
<title>Alexandria Bennett</title>
<polygon fill="white" stroke="#cccccc" points="760,-540 580,-540 580,-504 760,-504 760,-540"/>
<text text-anchor="middle" x="670" y="-518.3" font-family="Helvetica, Arial, sans-serif" font-size="14.00">Alexandria Bennett</text>
</g>
<!-- siblings_1&#45;&gt;Alexandria Bennett -->
<g id="edge9" class="edge">
<title>siblings_1&#45;&gt;Alexandria Bennett</title>
<path fill="none" stroke="#ccdf32" d="M551.03,-522C551.03,-522 569.81,-522 569.81,-522"/>
<polygon fill="#ccdf32" stroke="#ccdf32" points="577.81,-512 577.81,-532 573.81,-532 573.81,-512 577.81,-512"/>
<polyline fill="none" stroke="#ccdf32" points="579.81,-522 569.81,-522 "/>
</g>
<!-- union_2 -->
<g id="node11" class="node">
<title>union_2</title>
<ellipse fill="#629755" stroke="#cccccc" cx="511.5" cy="-90" rx="3.5" ry="3.5"/>
</g>
<!-- siblings_2 -->
<g id="node14" class="node">
<title>siblings_2</title>
<polygon fill="#629755" stroke="#cccccc" stroke-width="0" points="551,-90.5 544,-90.5 544,-89.5 551,-89.5 551,-90.5"/>
</g>
<!-- union_2&#45;&gt;siblings_2 -->
<g id="edge12" class="edge">
<title>union_2&#45;&gt;siblings_2</title>
<path fill="none" stroke="#629755" d="M515.08,-90C521.91,-90 536.73,-90 543.72,-90"/>
</g>
<!-- Claire Everly -->
<g id="node12" class="node">
<title>Claire Everly</title>
<polygon fill="white" stroke="#cccccc" points="479,-108 299,-108 299,-72 479,-72 479,-108"/>
<text text-anchor="middle" x="389" y="-86.3" font-family="Helvetica, Arial, sans-serif" font-size="14.00">Claire Everly</text>
</g>
<!-- Claire Everly&#45;&gt;union_2 -->
<g id="edge10" class="edge">
<title>Claire Everly&#45;&gt;union_2</title>
<path fill="none" stroke="#629755" d="M479.31,-90C491.94,-90 502.42,-90 507.73,-90"/>
</g>
<!-- Mina Price -->
<g id="node13" class="node">
<title>Mina Price</title>
<polygon fill="white" stroke="#cccccc" points="479,-54 299,-54 299,-18 479,-18 479,-54"/>
<text text-anchor="middle" x="389" y="-32.3" font-family="Helvetica, Arial, sans-serif" font-size="14.00">Mina Price</text>
</g>
<!-- Mina Price&#45;&gt;union_2 -->
<g id="edge11" class="edge">
<title>Mina Price&#45;&gt;union_2</title>
<path fill="none" stroke="#629755" d="M479.04,-36C497.79,-36 512,-36 512,-36 512,-36 512,-74.44 512,-86.46"/>
</g>
<!-- siblings_2&#45;&gt;Minerva Maat -->
<g id="edge13" class="edge">
<title>siblings_2&#45;&gt;Minerva Maat</title>
<path fill="none" stroke="#629755" stroke-dasharray="5,2" d="M548,-90.65C548,-99.34 548,-192 548,-192 548,-192 569.74,-192 569.74,-192"/>
<polygon fill="#629755" stroke="#629755" points="577.74,-182 577.74,-202 573.74,-202 573.74,-182 577.74,-182"/>
<polyline fill="none" stroke="#629755" points="579.74,-192 569.74,-192 "/>
</g>
<!-- union_3 -->
<g id="node15" class="node">
<title>union_3</title>
<ellipse fill="#cc7832" stroke="#cccccc" cx="230.5" cy="-108" rx="3.5" ry="3.5"/>
</g>
<!-- siblings_3 -->
<g id="node18" class="node">
<title>siblings_3</title>
<polygon fill="#cc7832" stroke="#cccccc" stroke-width="0" points="270,-108.5 263,-108.5 263,-107.5 270,-107.5 270,-108.5"/>
</g>
<!-- union_3&#45;&gt;siblings_3 -->
<g id="edge16" class="edge">
<title>union_3&#45;&gt;siblings_3</title>
<path fill="none" stroke="#cc7832" d="M234.08,-108C240.91,-108 255.73,-108 262.72,-108"/>
</g>
<!-- Sam Baas -->
<g id="node16" class="node">
<title>Sam Baas</title>
<polygon fill="white" stroke="#cccccc" points="198,-153 18,-153 18,-117 198,-117 198,-153"/>
<text text-anchor="middle" x="108" y="-131.3" font-family="Helvetica, Arial, sans-serif" font-size="14.00">Sam Baas</text>
</g>
<!-- Sam Baas&#45;&gt;union_3 -->
<g id="edge14" class="edge">
<title>Sam Baas&#45;&gt;union_3</title>
<path fill="none" stroke="#cc7832" d="M198.04,-135C216.79,-135 231,-135 231,-135 231,-135 231,-119.17 231,-111.75"/>
</g>
<!-- Dante Wolf -->
<g id="node17" class="node">
<title>Dante Wolf</title>
<polygon fill="white" stroke="#cccccc" points="198,-99 18,-99 18,-63 198,-63 198,-99"/>
<text text-anchor="middle" x="108" y="-77.3" font-family="Helvetica, Arial, sans-serif" font-size="14.00">Dante Wolf</text>
</g>
<!-- Dante Wolf&#45;&gt;union_3 -->
<g id="edge15" class="edge">
<title>Dante Wolf&#45;&gt;union_3</title>
<path fill="none" stroke="#cc7832" stroke-dasharray="5,2" d="M198.04,-85.5C216.79,-85.5 231,-85.5 231,-85.5 231,-85.5 231,-98.16 231,-104.48"/>
</g>
<!-- siblings_3&#45;&gt;Anita May -->
<g id="edge17" class="edge">
<title>siblings_3&#45;&gt;Anita May</title>
<path fill="none" stroke="#cc7832" d="M267,-108.81C267,-116.72 267,-180 267,-180 267,-180 288.74,-180 288.74,-180"/>
<polygon fill="#cc7832" stroke="#cc7832" points="296.74,-170 296.74,-190 292.74,-190 292.74,-170 296.74,-170"/>
<polyline fill="none" stroke="#cc7832" points="298.74,-180 288.74,-180 "/>
</g>
<!-- siblings_3&#45;&gt;Mina Price -->
<g id="edge18" class="edge">
<title>siblings_3&#45;&gt;Mina Price</title>
<path fill="none" stroke="#cc7832" d="M267,-107.19C267,-99.28 267,-36 267,-36 267,-36 288.74,-36 288.74,-36"/>
<polygon fill="#cc7832" stroke="#cc7832" points="296.74,-26 296.74,-46 292.74,-46 292.74,-26 296.74,-26"/>
<polyline fill="none" stroke="#cc7832" points="298.74,-36 288.74,-36 "/>
</g>
<!-- siblings_4 -->
<g id="node20" class="node">
<title>siblings_4</title>
<polygon fill="#6897bb" stroke="#cccccc" stroke-width="0" points="551,-378.5 544,-378.5 544,-377.5 551,-377.5 551,-378.5"/>
</g>
<!-- union_4&#45;&gt;siblings_4 -->
<g id="edge20" class="edge">
<title>union_4&#45;&gt;siblings_4</title>
<path fill="none" stroke="#6897bb" d="M515.08,-378C521.91,-378 536.73,-378 543.72,-378"/>
</g>
<!-- Winston Walker -->
<g id="node21" class="node">
<title>Winston Walker</title>
<polygon fill="white" stroke="#cccccc" points="760,-396 580,-396 580,-360 760,-360 760,-396"/>
<text text-anchor="middle" x="670" y="-374.3" font-family="Helvetica, Arial, sans-serif" font-size="14.00">Winston Walker</text>
</g>
<!-- siblings_4&#45;&gt;Winston Walker -->
<g id="edge21" class="edge">
<title>siblings_4&#45;&gt;Winston Walker</title>
<path fill="none" stroke="#6897bb" stroke-dasharray="5,2" d="M551.03,-378C551.03,-378 569.81,-378 569.81,-378"/>
<polygon fill="#6897bb" stroke="#6897bb" points="577.81,-368 577.81,-388 573.81,-388 573.81,-368 577.81,-368"/>
<polyline fill="none" stroke="#6897bb" points="579.81,-378 569.81,-378 "/>
</g>
<!-- Flop Dugong -->
<g id="node22" class="node">
<title>Flop Dugong</title>
<polygon fill="white" stroke="#cccccc" points="760,-450 580,-450 580,-414 760,-414 760,-450"/>
<text text-anchor="middle" x="670" y="-428.3" font-family="Helvetica, Arial, sans-serif" font-size="14.00">Flop Dugong</text>
</g>
<!-- siblings_4&#45;&gt;Flop Dugong -->
<g id="edge22" class="edge">
<title>siblings_4&#45;&gt;Flop Dugong</title>
<path fill="none" stroke="#6897bb" stroke-dasharray="5,2" d="M548,-378.61C548,-384.54 548,-432 548,-432 548,-432 569.74,-432 569.74,-432"/>
<polygon fill="#6897bb" stroke="#6897bb" points="577.74,-422 577.74,-442 573.74,-442 573.74,-422 577.74,-422"/>
<polyline fill="none" stroke="#6897bb" points="579.74,-432 569.74,-432 "/>
</g>
<!-- Balto Connelly -->
<g id="node23" class="node">
<title>Balto Connelly</title>
<polygon fill="white" stroke="#cccccc" points="198,-235 18,-235 18,-199 198,-199 198,-235"/>
<text text-anchor="middle" x="108" y="-213.3" font-family="Helvetica, Arial, sans-serif" font-size="14.00">Balto Connelly</text>
</g>
</g>
</svg>
