<svg width="787pt" height="610pt" viewBox="0.00 0.00 786.80 610.00" xmlns="http://www.w3.org/2000/svg" xmlns:xlink="http://www.w3.org/1999/xlink">
<g id="graph0" class="graph" transform="scale(1 1) rotate(0) translate(4 606)">
<title>G</title>
<polygon fill="white" stroke="none" points="-4,4 -4,-606 782.8,-606 782.8,4 -4,4"/>
<g id="clust1" class="cluster">
<title>cluster_family_0</title>
<polygon fill="#fafafa" stroke="#fafafa" points="289.4,-153 289.4,-351 770.8,-351 770.8,-153 289.4,-153"/>
<text text-anchor="start" x="297.4" y="-333.6" font-family="Helvetica, Arial, sans-serif" font-weight="bold" font-size="16.00">The Frat House Femly</text>
</g>
<g id="clust4" class="cluster">
<title>cluster_family_1</title>
<polygon fill="#fafafa" stroke="#fafafa" points="289.4,-504 289.4,-594 770.8,-594 770.8,-504 289.4,-504"/>
<text text-anchor="start" x="297.4" y="-576.6" font-family="Helvetica, Arial, sans-serif" font-weight="bold" font-size="16.00">The Pretend Family</text>
</g>
<g id="clust7" class="cluster">
<title>cluster_family_2</title>
<polygon fill="#fafafa" stroke="#fafafa" points="289.4,-8 289.4,-145 561.8,-145 561.8,-8 289.4,-8"/>
<text text-anchor="start" x="297.4" y="-127.6" font-family="Helvetica, Arial, sans-serif" font-weight="bold" font-size="16.00">Claire Trying to Adopt Minerva</text>
</g>
<g id="clust10" class="cluster">
<title>cluster_family_3</title>
<polygon fill="#fafafa" stroke="#fafafa" points="8,-134 8,-271 280.4,-271 280.4,-134 8,-134"/>
<text text-anchor="start" x="16" y="-253.6" font-family="Helvetica, Arial, sans-serif" font-weight="bold" font-size="16.00">The Baas Family (Minimal)</text>
</g>
<g id="clust14" class="cluster">
<title>cluster_family_4</title>
<polygon fill="#fafafa" stroke="#fafafa" points="498.4,-359 498.4,-496 770.8,-496 770.8,-359 498.4,-359"/>
<text text-anchor="start" x="506.4" y="-478.6" font-family="Helvetica, Arial, sans-serif" font-weight="bold" font-size="16.00">The SCU Children</text>
</g>
<!-- union_0 -->
<g id="node1" class="node">
<title>union_0</title>
<ellipse fill="#d25252" stroke="#cccccc" cx="512" cy="-235" rx="3.6" ry="3.6"/>
</g>
<!-- siblings_0 -->
<g id="node5" class="node">
<title>siblings_0</title>
<polygon fill="#d25252" stroke="#cccccc" stroke-width="0" points="551.8,-235.72 544.6,-235.72 544.6,-234.28 551.8,-234.28 551.8,-235.72"/>
</g>
<!-- union_0&#45;&gt;siblings_0 -->
<g id="edge4" class="edge">
<title>union_0-&gt;siblings_0</title>
<path fill="none" stroke="#d25252" d="M515.87,-235C523.02,-235 538.17,-235 544.88,-235"/>
</g>
<!-- Mackenzie Hayes -->
<g id="node2" class="node">
<title>Mackenzie Hayes</title>
<g id="a_node2"><a xlink:title="undefined Former Sheriff&#xA;&#xA;&#xA;">
<polygon fill="white" stroke="#cccccc" points="479.4,-313.4 299.4,-313.4 299.4,-270.6 479.4,-270.6 479.4,-313.4"/>
<text text-anchor="start" x="339.45" y="-294.8" font-family="Helvetica, Arial, sans-serif" font-size="14.00">Mackenzie Hayes</text>
<text text-anchor="start" x="359.55" y="-279.6" font-family="Helvetica, Arial, sans-serif" font-size="10.00" fill="#aaaaaa">Former Sheriff</text>
</a>
</g>
</g>
<!-- Mackenzie Hayes&#45;&gt;union_0 -->
<g id="edge1" class="edge">
<title>Mackenzie Hayes-&gt;union_0</title>
<path fill="none" stroke="#d25252" d="M479.7,-292C498.74,-292 513.2,-292 513.2,-292 513.2,-292 513.2,-251.42 513.2,-238.74"/>
</g>
<!-- union_1 -->
<g id="node7" class="node">
<title>union_1</title>
<ellipse fill="#ccdf32" stroke="#cccccc" cx="512" cy="-535" rx="3.6" ry="3.6"/>
</g>
<!-- Mackenzie Hayes&#45;&gt;union_1 -->
<g id="edge6" class="edge">
<title>Mackenzie Hayes-&gt;union_1</title>
<path fill="none" stroke="#ccdf32" stroke-dasharray="5,2" d="M479.81,-281.3C488.35,-281.3 493.9,-281.3 493.9,-281.3 493.9,-281.3 493.9,-533.8 493.9,-533.8 493.9,-533.8 502.85,-533.8 508.16,-533.8"/>
</g>
<!-- union_4 -->
<g id="node19" class="node">
<title>union_4</title>
<ellipse fill="#6897bb" stroke="#cccccc" cx="512" cy="-387" rx="3.6" ry="3.6"/>
</g>
<!-- Mackenzie Hayes&#45;&gt;union_4 -->
<g id="edge19" class="edge">
<title>Mackenzie Hayes-&gt;union_4</title>
<path fill="none" stroke="#6897bb" stroke-dasharray="5,2" d="M479.85,-302.7C497.57,-302.7 510.8,-302.7 510.8,-302.7 510.8,-302.7 510.8,-367.24 510.8,-383.38"/>
</g>
<!-- Daisy Dukakis -->
<g id="node3" class="node">
<title>Daisy Dukakis</title>
<polygon fill="white" stroke="#cccccc" points="479.4,-199 299.4,-199 299.4,-163 479.4,-163 479.4,-199"/>
<text text-anchor="middle" x="389.4" y="-176.8" font-family="Helvetica, Arial, sans-serif" font-size="14.00">Daisy Dukakis</text>
</g>
<!-- Daisy Dukakis&#45;&gt;union_0 -->
<g id="edge2" class="edge">
<title>Daisy Dukakis-&gt;union_0</title>
<path fill="none" stroke="#d25252" d="M479.79,-181C498.16,-181 512,-181 512,-181 512,-181 512,-218.73 512,-231.12"/>
</g>
<!-- Anita May -->
<g id="node4" class="node">
<title>Anita May</title>
<polygon fill="white" stroke="#cccccc" points="479.4,-253 299.4,-253 299.4,-217 479.4,-217 479.4,-253"/>
<text text-anchor="middle" x="389.4" y="-230.8" font-family="Helvetica, Arial, sans-serif" font-size="14.00">Anita May</text>
</g>
<!-- Anita May&#45;&gt;union_0 -->
<g id="edge3" class="edge">
<title>Anita May-&gt;union_0</title>
<path fill="none" stroke="#d25252" d="M479.79,-235C492.42,-235 502.91,-235 508.23,-235"/>
</g>
<!-- Minerva Maat -->
<g id="node6" class="node">
<title>Minerva Maat</title>
<g id="a_node6"><a xlink:title="undefined Wants Her Allowance&#xA;&#xA;&#xA;">
<polygon fill="white" stroke="#cccccc" points="760.8,-256.4 580.8,-256.4 580.8,-213.6 760.8,-213.6 760.8,-256.4"/>
<text text-anchor="start" x="630.95" y="-237.8" font-family="Helvetica, Arial, sans-serif" font-size="14.00">Minerva Maat</text>
<text text-anchor="start" x="626.37" y="-222.6" font-family="Helvetica, Arial, sans-serif" font-size="10.00" fill="#aaaaaa">Wants Her Allowance</text>
</a>
</g>
</g>
<!-- siblings_0&#45;&gt;Minerva Maat -->
<g id="edge5" class="edge">
<title>siblings_0-&gt;Minerva Maat</title>
<path fill="none" stroke="#d25252" d="M551.74,-235C551.74,-235 570.54,-235 570.54,-235"/>
<polygon fill="#d25252" stroke="#d25252" points="578.54,-225 578.54,-245 574.54,-245 574.54,-225 578.54,-225"/>
<polyline fill="none" stroke="#d25252" points="580.54,-235 570.54,-235"/>
</g>
<!-- siblings_1 -->
<g id="node9" class="node">
<title>siblings_1</title>
<polygon fill="#ccdf32" stroke="#cccccc" stroke-width="0" points="551.8,-535.72 544.6,-535.72 544.6,-534.28 551.8,-534.28 551.8,-535.72"/>
</g>
<!-- union_1&#45;&gt;siblings_1 -->
<g id="edge8" class="edge">
<title>union_1-&gt;siblings_1</title>
<path fill="none" stroke="#ccdf32" d="M515.87,-535C523.02,-535 538.17,-535 544.88,-535"/>
</g>
<!-- Jeffrey Price -->
<g id="node8" class="node">
<title>Jeffrey Price</title>
<g id="a_node8"><a xlink:title="undefined Former International Arms Dealer&#xA;&#xA;&#xA;">
<polygon fill="white" stroke="#cccccc" points="479.4,-556.4 299.4,-556.4 299.4,-513.6 479.4,-513.6 479.4,-556.4"/>
<text text-anchor="start" x="353.84" y="-537.8" font-family="Helvetica, Arial, sans-serif" font-size="14.00">Jeffrey Price</text>
<text text-anchor="start" x="320.95" y="-522.6" font-family="Helvetica, Arial, sans-serif" font-size="10.00" fill="#aaaaaa">Former International Arms Dealer</text>
</a>
</g>
</g>
<!-- Jeffrey Price&#45;&gt;union_1 -->
<g id="edge7" class="edge">
<title>Jeffrey Price-&gt;union_1</title>
<path fill="none" stroke="#ccdf32" stroke-dasharray="5,2" d="M479.79,-536.2C492.42,-536.2 502.91,-536.2 508.23,-536.2"/>
</g>
<!-- Alexandria Bennett -->
<g id="node10" class="node">
<title>Alexandria Bennett</title>
<g id="a_node10"><a xlink:title="undefined Pretend Daughter&#xA;&#xA;&#xA;">
<polygon fill="white" stroke="#cccccc" points="760.8,-556.4 580.8,-556.4 580.8,-513.6 760.8,-513.6 760.8,-556.4"/>
<text text-anchor="start" x="616.18" y="-537.8" font-family="Helvetica, Arial, sans-serif" font-size="14.00">Alexandria Bennett</text>
<text text-anchor="start" x="635.67" y="-522.6" font-family="Helvetica, Arial, sans-serif" font-size="10.00" fill="#aaaaaa">Pretend Daughter</text>
</a>
</g>
</g>
<!-- siblings_1&#45;&gt;Alexandria Bennett -->
<g id="edge9" class="edge">
<title>siblings_1-&gt;Alexandria Bennett</title>
<path fill="none" stroke="#ccdf32" d="M551.74,-535C551.74,-535 570.54,-535 570.54,-535"/>
<polygon fill="#ccdf32" stroke="#ccdf32" points="578.54,-525 578.54,-545 574.54,-545 574.54,-525 578.54,-525"/>
<polyline fill="none" stroke="#ccdf32" points="580.54,-535 570.54,-535"/>
</g>
<!-- union_2 -->
<g id="node11" class="node">
<title>union_2</title>
<ellipse fill="#629755" stroke="#cccccc" cx="512" cy="-90" rx="3.6" ry="3.6"/>
</g>
<!-- siblings_2 -->
<g id="node14" class="node">
<title>siblings_2</title>
<polygon fill="#629755" stroke="#cccccc" stroke-width="0" points="551.8,-90.72 544.6,-90.72 544.6,-89.28 551.8,-89.28 551.8,-90.72"/>
</g>
<!-- union_2&#45;&gt;siblings_2 -->
<g id="edge12" class="edge">
<title>union_2-&gt;siblings_2</title>
<path fill="none" stroke="#629755" d="M515.87,-90C523.02,-90 538.17,-90 544.88,-90"/>
</g>
<!-- Claire Everly -->
<g id="node12" class="node">
<title>Claire Everly</title>
<polygon fill="white" stroke="#cccccc" points="479.4,-54 299.4,-54 299.4,-18 479.4,-18 479.4,-54"/>
<text text-anchor="middle" x="389.4" y="-31.8" font-family="Helvetica, Arial, sans-serif" font-size="14.00">Claire Everly</text>
</g>
<!-- Claire Everly&#45;&gt;union_2 -->
<g id="edge10" class="edge">
<title>Claire Everly-&gt;union_2</title>
<path fill="none" stroke="#629755" d="M479.79,-36C498.16,-36 512,-36 512,-36 512,-36 512,-73.73 512,-86.12"/>
</g>
<!-- Mina Price -->
<g id="node13" class="node">
<title>Mina Price</title>
<polygon fill="white" stroke="#cccccc" points="479.4,-108 299.4,-108 299.4,-72 479.4,-72 479.4,-108"/>
<text text-anchor="middle" x="389.4" y="-85.8" font-family="Helvetica, Arial, sans-serif" font-size="14.00">Mina Price</text>
</g>
<!-- Mina Price&#45;&gt;union_2 -->
<g id="edge11" class="edge">
<title>Mina Price-&gt;union_2</title>
<path fill="none" stroke="#629755" d="M479.79,-90C492.42,-90 502.91,-90 508.23,-90"/>
</g>
<!-- siblings_2&#45;&gt;Minerva Maat -->
<g id="edge13" class="edge">
<title>siblings_2-&gt;Minerva Maat</title>
<path fill="none" stroke="#629755" stroke-dasharray="5,2" d="M548.2,-90.38C548.2,-98.26 548.2,-224.2 548.2,-224.2 548.2,-224.2 570.41,-224.2 570.41,-224.2"/>
<polygon fill="#629755" stroke="#629755" points="578.41,-214.2 578.41,-234.2 574.41,-234.2 574.41,-214.2 578.41,-214.2"/>
<polyline fill="none" stroke="#629755" points="580.41,-224.2 570.41,-224.2"/>
</g>
<!-- union_3 -->
<g id="node15" class="node">
<title>union_3</title>
<ellipse fill="#cc7832" stroke="#cccccc" cx="230.6" cy="-162" rx="3.6" ry="3.6"/>
</g>
<!-- siblings_3 -->
<g id="node18" class="node">
<title>siblings_3</title>
<polygon fill="#cc7832" stroke="#cccccc" stroke-width="0" points="270.4,-162.72 263.2,-162.72 263.2,-161.28 270.4,-161.28 270.4,-162.72"/>
</g>
<!-- union_3&#45;&gt;siblings_3 -->
<g id="edge16" class="edge">
<title>union_3-&gt;siblings_3</title>
<path fill="none" stroke="#cc7832" d="M234.47,-162C241.62,-162 256.77,-162 263.48,-162"/>
</g>
<!-- Sam Baas -->
<g id="node16" class="node">
<title>Sam Baas</title>
<polygon fill="white" stroke="#cccccc" points="198,-180 18,-180 18,-144 198,-144 198,-180"/>
<text text-anchor="middle" x="108" y="-157.8" font-family="Helvetica, Arial, sans-serif" font-size="14.00">Sam Baas</text>
</g>
<!-- Sam Baas&#45;&gt;union_3 -->
<g id="edge14" class="edge">
<title>Sam Baas-&gt;union_3</title>
<path fill="none" stroke="#cc7832" d="M198.39,-162C211.02,-162 221.51,-162 226.83,-162"/>
</g>
<!-- Dante Wolf -->
<g id="node17" class="node">
<title>Dante Wolf</title>
<polygon fill="white" stroke="#cccccc" points="198,-234 18,-234 18,-198 198,-198 198,-234"/>
<text text-anchor="middle" x="108" y="-211.8" font-family="Helvetica, Arial, sans-serif" font-size="14.00">Dante Wolf</text>
</g>
<!-- Dante Wolf&#45;&gt;union_3 -->
<g id="edge15" class="edge">
<title>Dante Wolf-&gt;union_3</title>
<path fill="none" stroke="#cc7832" stroke-dasharray="5,2" d="M198.39,-206.3C216.76,-206.3 230.6,-206.3 230.6,-206.3 230.6,-206.3 230.6,-177.06 230.6,-166.09"/>
</g>
<!-- siblings_3&#45;&gt;Anita May -->
<g id="edge17" class="edge">
<title>siblings_3-&gt;Anita May</title>
<path fill="none" stroke="#cc7832" d="M266.8,-162.71C266.8,-169.69 266.8,-225.5 266.8,-225.5 266.8,-225.5 289.01,-225.5 289.01,-225.5"/>
<polygon fill="#cc7832" stroke="#cc7832" points="297.01,-215.5 297.01,-235.5 293.01,-235.5 293.01,-215.5 297.01,-215.5"/>
<polyline fill="none" stroke="#cc7832" points="299.01,-225.5 289.01,-225.5"/>
</g>
<!-- siblings_3&#45;&gt;Mina Price -->
<g id="edge18" class="edge">
<title>siblings_3-&gt;Mina Price</title>
<path fill="none" stroke="#cc7832" d="M266.8,-161.54C266.8,-155.41 266.8,-90 266.8,-90 266.8,-90 289.01,-90 289.01,-90"/>
<polygon fill="#cc7832" stroke="#cc7832" points="297.01,-80 297.01,-100 293.01,-100 293.01,-80 297.01,-80"/>
<polyline fill="none" stroke="#cc7832" points="299.01,-90 289.01,-90"/>
</g>
<!-- siblings_4 -->
<g id="node20" class="node">
<title>siblings_4</title>
<polygon fill="#6897bb" stroke="#cccccc" stroke-width="0" points="551.8,-387.72 544.6,-387.72 544.6,-386.28 551.8,-386.28 551.8,-387.72"/>
</g>
<!-- union_4&#45;&gt;siblings_4 -->
<g id="edge20" class="edge">
<title>union_4-&gt;siblings_4</title>
<path fill="none" stroke="#6897bb" d="M515.87,-387C523.02,-387 538.17,-387 544.88,-387"/>
</g>
<!-- Winston Walker -->
<g id="node21" class="node">
<title>Winston Walker</title>
<polygon fill="white" stroke="#cccccc" points="760.8,-405 580.8,-405 580.8,-369 760.8,-369 760.8,-405"/>
<text text-anchor="middle" x="670.8" y="-382.8" font-family="Helvetica, Arial, sans-serif" font-size="14.00">Winston Walker</text>
</g>
<!-- siblings_4&#45;&gt;Winston Walker -->
<g id="edge21" class="edge">
<title>siblings_4-&gt;Winston Walker</title>
<path fill="none" stroke="#6897bb" stroke-dasharray="5,2" d="M551.74,-387C551.74,-387 570.54,-387 570.54,-387"/>
<polygon fill="#6897bb" stroke="#6897bb" points="578.54,-377 578.54,-397 574.54,-397 574.54,-377 578.54,-377"/>
<polyline fill="none" stroke="#6897bb" points="580.54,-387 570.54,-387"/>
</g>
<!-- Flop Dugong -->
<g id="node22" class="node">
<title>Flop Dugong</title>
<polygon fill="white" stroke="#cccccc" points="760.8,-459 580.8,-459 580.8,-423 760.8,-423 760.8,-459"/>
<text text-anchor="middle" x="670.8" y="-436.8" font-family="Helvetica, Arial, sans-serif" font-size="14.00">Flop Dugong</text>
</g>
<!-- siblings_4&#45;&gt;Flop Dugong -->
<g id="edge22" class="edge">
<title>siblings_4-&gt;Flop Dugong</title>
<path fill="none" stroke="#6897bb" stroke-dasharray="5,2" d="M548.2,-387.61C548.2,-393.54 548.2,-441 548.2,-441 548.2,-441 570.41,-441 570.41,-441"/>
<polygon fill="#6897bb" stroke="#6897bb" points="578.41,-431 578.41,-451 574.41,-451 574.41,-431 578.41,-431"/>
<polyline fill="none" stroke="#6897bb" points="580.41,-441 570.41,-441"/>
</g>
<!-- Balto Connelly -->
<g id="node23" class="node">
<title>Balto Connelly</title>
<g id="a_node23"><a xlink:title="undefined A Grandpa&#xA;&#xA;&#xA;">
<polygon fill="white" stroke="#cccccc" points="198,-323.4 18,-323.4 18,-280.6 198,-280.6 198,-323.4"/>
<text text-anchor="start" x="65.42" y="-304.8" font-family="Helvetica, Arial, sans-serif" font-size="14.00">Balto Connelly</text>
<text text-anchor="start" x="85.92" y="-289.6" font-family="Helvetica, Arial, sans-serif" font-size="10.00" fill="#aaaaaa">A Grandpa</text>
</a>
</g>
</g>
</g>
</svg>