<?xml version="1.0" encoding="UTF-8" standalone="no"?>
<!DOCTYPE svg PUBLIC "-//W3C//DTD SVG 1.1//EN"
 "http://www.w3.org/Graphics/SVG/1.1/DTD/svg11.dtd">
<!-- Generated by graphviz version 13.1.1 (0)
 -->
<!-- Title: G Pages: 1 -->
<svg width="505pt" height="399pt"
 viewBox="0.00 0.00 505.00 399.00" xmlns="http://www.w3.org/2000/svg" xmlns:xlink="http://www.w3.org/1999/xlink">
<g id="graph0" class="graph" transform="scale(1 1) rotate(0) translate(4 395)">
<title>G</title>
<polygon fill="white" stroke="none" points="-4,4 -4,-395 501.4,-395 501.4,4 -4,4"/>
<g id="clust1" class="cluster">
<title>cluster_family_0</title>
<polygon fill="#fafafa" stroke="#fafafa" points="8,-153 8,-383 489.4,-383 489.4,-153 8,-153"/>
<text xml:space="preserve" text-anchor="start" x="16" y="-365.6" font-family="Helvetica, Arial, sans-serif" font-weight="bold" font-size="16.00">House A</text>
</g>
<g id="clust5" class="cluster">
<title>cluster_family_1</title>
<polygon fill="#fafafa" stroke="#fafafa" points="8,-8 8,-145 489.4,-145 489.4,-8 8,-8"/>
<text xml:space="preserve" text-anchor="start" x="16" y="-127.6" font-family="Helvetica, Arial, sans-serif" font-weight="bold" font-size="16.00">House B</text>
</g>
<!-- union_0 -->
<g id="node1" class="node">
<title>union_0</title>
<ellipse fill="#d25252" stroke="#cccccc" cx="230.6" cy="-263" rx="3.6" ry="3.6"/>
</g>
<!-- siblings_0 -->
<g id="node5" class="node">
<title>siblings_0</title>
<polygon fill="#d25252" stroke="#cccccc" stroke-width="0" points="270.4,-263.72 263.2,-263.72 263.2,-262.28 270.4,-262.28 270.4,-263.72"/>
</g>
<!-- union_0&#45;&gt;siblings_0 -->
<g id="edge5" class="edge">
<title>union_0&#45;&gt;siblings_0</title>
<path fill="none" stroke="#d25252" d="M234.47,-263C241.62,-263 256.77,-263 263.48,-263"/>
</g>
<!-- Parent 1 -->
<g id="node2" class="node">
<title>Parent 1</title>
<g id="a_node2"><a xlink:title="undefined &#10;Born 1904 &#160;&#45;&#45; Died 1999&#10;">
<polygon fill="#f4f4f4" stroke="#cccccc" stroke-width="0" points="198,-282.4 18,-282.4 18,-223.6 198,-223.6 198,-282.4"/>
<text xml:space="preserve" text-anchor="start" x="77.87" y="-261.8" font-family="Helvetica, Arial, sans-serif" font-size="14.00">Parent 1 ♂</text>
<text xml:space="preserve" text-anchor="start" x="95.5" y="-246.6" font-family="Helvetica, Arial, sans-serif" font-size="10.00" fill="#aaaaaa">*1904</text>
<text xml:space="preserve" text-anchor="start" x="84.67" y="-232.6" font-family="Helvetica, Arial, sans-serif" font-size="10.00" fill="#aaaaaa">†1999 (95)</text>
</a>
</g>
</g>
<!-- Parent 1&#45;&gt;union_0 -->
<g id="edge1" class="edge">
<title>Parent 1&#45;&gt;union_0</title>
<path fill="none" stroke="#d25252" d="M197.75,-263C210.6,-263 221.31,-263 226.75,-263"/>
</g>
<!-- Parent 2 -->
<g id="node3" class="node">
<title>Parent 2</title>
<g id="a_node3"><a xlink:title="undefined &#10;Born 1909 &#10;">
<polygon fill="white" stroke="#cccccc" points="198,-345.4 18,-345.4 18,-300.6 198,-300.6 198,-345.4"/>
<text xml:space="preserve" text-anchor="start" x="77.87" y="-324.8" font-family="Helvetica, Arial, sans-serif" font-size="14.00">Parent 2 ♀</text>
<text xml:space="preserve" text-anchor="start" x="95.5" y="-309.6" font-family="Helvetica, Arial, sans-serif" font-size="10.00" fill="#aaaaaa">*1909</text>
</a>
</g>
</g>
<!-- Parent 2&#45;&gt;union_0 -->
<g id="edge2" class="edge">
<title>Parent 2&#45;&gt;union_0</title>
<path fill="none" stroke="#d25252" d="M198.33,-317.8C217.15,-317.8 231.4,-317.8 231.4,-317.8 231.4,-317.8 231.4,-279.51 231.4,-266.94"/>
</g>
<!-- Parent 2&#45;&gt;union_0 -->
<g id="edge3" class="edge">
<title>Parent 2&#45;&gt;union_0</title>
<path fill="none" stroke="#d25252" stroke-dasharray="5,2" d="M198.45,-309.2C216.17,-309.2 229.4,-309.2 229.4,-309.2 229.4,-309.2 229.4,-277.52 229.4,-266.63"/>
</g>
<!-- Parent 4 -->
<g id="node4" class="node">
<title>Parent 4</title>
<g id="a_node4"><a xlink:title="undefined &#10; Died 1955&#10;">
<polygon fill="#f4f4f4" stroke="#cccccc" stroke-width="0" points="198,-205.4 18,-205.4 18,-162.6 198,-162.6 198,-205.4"/>
<text xml:space="preserve" text-anchor="start" x="84.87" y="-186.8" font-family="Helvetica, Arial, sans-serif" font-size="14.00">Parent 4</text>
<text xml:space="preserve" text-anchor="start" x="94.25" y="-171.6" font-family="Helvetica, Arial, sans-serif" font-size="10.00" fill="#aaaaaa">†1955</text>
</a>
</g>
</g>
<!-- Parent 4&#45;&gt;union_0 -->
<g id="edge4" class="edge">
<title>Parent 4&#45;&gt;union_0</title>
<path fill="none" stroke="#d25252" stroke-dasharray="5,2" d="M197.68,-198.2C216.82,-198.2 231.4,-198.2 231.4,-198.2 231.4,-198.2 231.4,-245.19 231.4,-259.14"/>
</g>
<!-- union_1 -->
<g id="node9" class="node">
<title>union_1</title>
<ellipse fill="#ccdf32" stroke="#cccccc" cx="230.6" cy="-90" rx="3.6" ry="3.6"/>
</g>
<!-- Parent 4&#45;&gt;union_1 -->
<g id="edge9" class="edge">
<title>Parent 4&#45;&gt;union_1</title>
<path fill="none" stroke="#ccdf32" d="M197.82,-176.8C215.86,-176.8 229.4,-176.8 229.4,-176.8 229.4,-176.8 229.4,-110.34 229.4,-93.73"/>
</g>
<!-- Child 1 -->
<g id="node6" class="node">
<title>Child 1</title>
<polygon fill="white" stroke="#cccccc" points="479.4,-227 299.4,-227 299.4,-191 479.4,-191 479.4,-227"/>
<text xml:space="preserve" text-anchor="middle" x="389.4" y="-204.8" font-family="Helvetica, Arial, sans-serif" font-size="14.00">Child 1</text>
</g>
<!-- siblings_0&#45;&gt;Child 1 -->
<g id="edge6" class="edge">
<title>siblings_0&#45;&gt;Child 1</title>
<path fill="none" stroke="#d25252" d="M266.4,-262.46C266.4,-257.13 266.4,-214.5 266.4,-214.5 266.4,-214.5 289.04,-214.5 289.04,-214.5"/>
<polygon fill="#d25252" stroke="#d25252" points="297.04,-204.5 297.04,-224.5 293.04,-224.5 293.04,-204.5 297.04,-204.5"/>
<polyline fill="none" stroke="#d25252" points="299.04,-214.5 289.04,-214.5"/>
</g>
<!-- Child 2 -->
<g id="node7" class="node">
<title>Child 2</title>
<polygon fill="white" stroke="#cccccc" points="479.4,-281 299.4,-281 299.4,-245 479.4,-245 479.4,-281"/>
<text xml:space="preserve" text-anchor="middle" x="389.4" y="-258.8" font-family="Helvetica, Arial, sans-serif" font-size="14.00">Child 2</text>
</g>
<!-- siblings_0&#45;&gt;Child 2 -->
<g id="edge7" class="edge">
<title>siblings_0&#45;&gt;Child 2</title>
<path fill="none" stroke="#d25252" d="M270.34,-263C270.34,-263 289.14,-263 289.14,-263"/>
<polygon fill="#d25252" stroke="#d25252" points="297.14,-253 297.14,-273 293.14,-273 293.14,-253 297.14,-253"/>
<polyline fill="none" stroke="#d25252" points="299.14,-263 289.14,-263"/>
</g>
<!-- Child 3 -->
<g id="node8" class="node">
<title>Child 3</title>
<polygon fill="white" stroke="#cccccc" points="479.4,-335 299.4,-335 299.4,-299 479.4,-299 479.4,-335"/>
<text xml:space="preserve" text-anchor="middle" x="389.4" y="-312.8" font-family="Helvetica, Arial, sans-serif" font-size="14.00">Child 3</text>
</g>
<!-- siblings_0&#45;&gt;Child 3 -->
<g id="edge8" class="edge">
<title>siblings_0&#45;&gt;Child 3</title>
<path fill="none" stroke="#d25252" d="M266.4,-263.71C266.4,-270.68 266.4,-326.4 266.4,-326.4 266.4,-326.4 289.04,-326.4 289.04,-326.4"/>
<polygon fill="#d25252" stroke="#d25252" points="297.04,-316.4 297.04,-336.4 293.04,-336.4 293.04,-316.4 297.04,-316.4"/>
<polyline fill="none" stroke="#d25252" points="299.04,-326.4 289.04,-326.4"/>
</g>
<!-- siblings_1 -->
<g id="node11" class="node">
<title>siblings_1</title>
<polygon fill="#ccdf32" stroke="#cccccc" stroke-width="0" points="270.4,-90.72 263.2,-90.72 263.2,-89.28 270.4,-89.28 270.4,-90.72"/>
</g>
<!-- union_1&#45;&gt;siblings_1 -->
<g id="edge11" class="edge">
<title>union_1&#45;&gt;siblings_1</title>
<path fill="none" stroke="#ccdf32" d="M234.47,-90C241.62,-90 256.77,-90 263.48,-90"/>
</g>
<!-- Parent 5 -->
<g id="node10" class="node">
<title>Parent 5</title>
<polygon fill="white" stroke="#cccccc" points="198,-108 18,-108 18,-72 198,-72 198,-108"/>
<text xml:space="preserve" text-anchor="middle" x="108" y="-85.8" font-family="Helvetica, Arial, sans-serif" font-size="14.00">Parent 5</text>
</g>
<!-- Parent 5&#45;&gt;union_1 -->
<g id="edge10" class="edge">
<title>Parent 5&#45;&gt;union_1</title>
<path fill="none" stroke="#ccdf32" d="M198.39,-90C211.02,-90 221.51,-90 226.83,-90"/>
</g>
<!-- Child 6 -->
<g id="node12" class="node">
<title>Child 6</title>
<polygon fill="white" stroke="#cccccc" points="479.4,-54 299.4,-54 299.4,-18 479.4,-18 479.4,-54"/>
<text xml:space="preserve" text-anchor="middle" x="389.4" y="-31.8" font-family="Helvetica, Arial, sans-serif" font-size="14.00">Child 6</text>
</g>
<!-- siblings_1&#45;&gt;Child 6 -->
<g id="edge12" class="edge">
<title>siblings_1&#45;&gt;Child 6</title>
<path fill="none" stroke="#ccdf32" d="M266.4,-89.39C266.4,-83.46 266.4,-36 266.4,-36 266.4,-36 289.04,-36 289.04,-36"/>
<polygon fill="#ccdf32" stroke="#ccdf32" points="297.04,-26 297.04,-46 293.04,-46 293.04,-26 297.04,-26"/>
<polyline fill="none" stroke="#ccdf32" points="299.04,-36 289.04,-36"/>
</g>
<!-- Child 5 -->
<g id="node13" class="node">
<title>Child 5</title>
<polygon fill="white" stroke="#cccccc" points="479.4,-108 299.4,-108 299.4,-72 479.4,-72 479.4,-108"/>
<text xml:space="preserve" text-anchor="middle" x="389.4" y="-85.8" font-family="Helvetica, Arial, sans-serif" font-size="14.00">Child 5</text>
</g>
<!-- siblings_1&#45;&gt;Child 5 -->
<g id="edge13" class="edge">
<title>siblings_1&#45;&gt;Child 5</title>
<path fill="none" stroke="#ccdf32" stroke-dasharray="5,2" d="M270.34,-90C270.34,-90 289.14,-90 289.14,-90"/>
<polygon fill="#ccdf32" stroke="#ccdf32" points="297.14,-80 297.14,-100 293.14,-100 293.14,-80 297.14,-80"/>
<polyline fill="none" stroke="#ccdf32" points="299.14,-90 289.14,-90"/>
</g>
</g>
</svg>
