<?xml version="1.0" encoding="UTF-8" standalone="no"?>
<!DOCTYPE svg PUBLIC "-//W3C//DTD SVG 1.1//EN"
 "http://www.w3.org/Graphics/SVG/1.1/DTD/svg11.dtd">
<!-- Generated by graphviz version 13.1.1 (0)
 -->
<!-- Title: G Pages: 1 -->
<svg width="813pt" height="966pt"
 viewBox="0.00 0.00 813.00 966.00" xmlns="http://www.w3.org/2000/svg" xmlns:xlink="http://www.w3.org/1999/xlink">
<g id="graph0" class="graph" transform="scale(1 1) rotate(0) translate(4 962)">
<title>G</title>
<polygon fill="white" stroke="none" points="-4,4 -4,-962 809,-962 809,4 -4,4"/>
<g id="clust1" class="cluster">
<title>cluster_family_0</title>
<polygon fill="#fafafa" stroke="#fafafa" points="34.2,-759 34.2,-950 797,-950 797,-759 34.2,-759"/>
<text xml:space="preserve" text-anchor="start" x="42.2" y="-932.6" font-family="Helvetica, Arial, sans-serif" font-weight="bold" font-size="16.00">Potter</text>
</g>
<g id="clust2" class="cluster">
<title>cluster_family_0_0</title>
</g>
<g id="clust7" class="cluster">
<title>cluster_family_1</title>
<polygon fill="#fafafa" stroke="#fafafa" points="34.2,-614 34.2,-751 515.6,-751 515.6,-614 34.2,-614"/>
<text xml:space="preserve" text-anchor="start" x="42.2" y="-733.6" font-family="Helvetica, Arial, sans-serif" font-weight="bold" font-size="16.00">Dursley</text>
</g>
<g id="clust11" class="cluster">
<title>cluster_family_2</title>
<polygon fill="#fafafa" stroke="#fafafa" points="34.2,-153 34.2,-606 797,-606 797,-153 34.2,-153"/>
<text xml:space="preserve" text-anchor="start" x="42.2" y="-588.6" font-family="Helvetica, Arial, sans-serif" font-weight="bold" font-size="16.00">Weasley</text>
</g>
<g id="clust12" class="cluster">
<title>cluster_family_2_0</title>
</g>
<g id="clust15" class="cluster">
<title>cluster_family_2_1</title>
</g>
<g id="clust17" class="cluster">
<title>cluster_family_2_2</title>
</g>
<g id="clust22" class="cluster">
<title>cluster_family_3</title>
<polygon fill="#fafafa" stroke="#fafafa" points="34.2,-8 34.2,-145 306.6,-145 306.6,-8 34.2,-8"/>
<text xml:space="preserve" text-anchor="start" x="42.2" y="-127.6" font-family="Helvetica, Arial, sans-serif" font-weight="bold" font-size="16.00">Granger</text>
</g>
<g id="clust25" class="cluster">
<title>cluster_family_4</title>
</g>
<!-- union_0_0 -->
<g id="node1" class="node">
<title>union_0_0</title>
<ellipse fill="#ccdf32" stroke="#cccccc" cx="538.2" cy="-841" rx="3.6" ry="3.6"/>
</g>
<!-- siblings_0_0 -->
<g id="node4" class="node">
<title>siblings_0_0</title>
<polygon fill="#ccdf32" stroke="#cccccc" stroke-width="0" points="578,-841.72 570.8,-841.72 570.8,-840.28 578,-840.28 578,-841.72"/>
</g>
<!-- union_0_0&#45;&gt;siblings_0_0 -->
<g id="edge3" class="edge">
<title>union_0_0&#45;&gt;siblings_0_0</title>
<path fill="none" stroke="#ccdf32" d="M542.07,-841C549.22,-841 564.37,-841 571.08,-841"/>
</g>
<!-- Harry -->
<g id="node2" class="node">
<title>Harry</title>
<g id="a_node2"><a xlink:href="http://harrypotter.wikia.com/wiki/Harry_Potter" xlink:title="undefined &#10;&#10;">
<polygon fill="white" stroke="#cccccc" points="505.6,-859 325.6,-859 325.6,-823 505.6,-823 505.6,-859"/>
<text xml:space="preserve" text-anchor="middle" x="415.6" y="-836.8" font-family="Helvetica, Arial, sans-serif" font-size="14.00">Harry</text>
</a>
</g>
</g>
<!-- Harry&#45;&gt;union_0_0 -->
<g id="edge1" class="edge">
<title>Harry&#45;&gt;union_0_0</title>
<path fill="none" stroke="#ccdf32" d="M505.99,-841C518.62,-841 529.11,-841 534.43,-841"/>
</g>
<!-- Ginny -->
<g id="node3" class="node">
<title>Ginny</title>
<g id="a_node3"><a xlink:href="http://harrypotter.wikia.com/wiki/Ginevra_Weasley" xlink:title="undefined &#10;&#10;">
<polygon fill="white" stroke="#cccccc" points="505.6,-805 325.6,-805 325.6,-769 505.6,-769 505.6,-805"/>
<text xml:space="preserve" text-anchor="middle" x="415.6" y="-782.8" font-family="Helvetica, Arial, sans-serif" font-size="14.00">Ginny</text>
</a>
</g>
</g>
<!-- Ginny&#45;&gt;union_0_0 -->
<g id="edge2" class="edge">
<title>Ginny&#45;&gt;union_0_0</title>
<path fill="none" stroke="#ccdf32" d="M506.05,-793C523.77,-793 537,-793 537,-793 537,-793 537,-825.92 537,-837.23"/>
</g>
<!-- James II -->
<g id="node5" class="node">
<title>James II</title>
<polygon fill="white" stroke="#cccccc" points="787,-913 607,-913 607,-877 787,-877 787,-913"/>
<text xml:space="preserve" text-anchor="middle" x="697" y="-890.8" font-family="Helvetica, Arial, sans-serif" font-size="14.00">James II</text>
</g>
<!-- siblings_0_0&#45;&gt;James II -->
<g id="edge4" class="edge">
<title>siblings_0_0&#45;&gt;James II</title>
<path fill="none" stroke="#ccdf32" d="M574,-841.61C574,-847.54 574,-895 574,-895 574,-895 596.64,-895 596.64,-895"/>
<polygon fill="#ccdf32" stroke="#ccdf32" points="604.64,-885 604.64,-905 600.64,-905 600.64,-885 604.64,-885"/>
<polyline fill="none" stroke="#ccdf32" points="606.64,-895 596.64,-895"/>
</g>
<!-- Lily II -->
<g id="node6" class="node">
<title>Lily II</title>
<polygon fill="white" stroke="#cccccc" points="787,-805 607,-805 607,-769 787,-769 787,-805"/>
<text xml:space="preserve" text-anchor="middle" x="697" y="-782.8" font-family="Helvetica, Arial, sans-serif" font-size="14.00">Lily II</text>
</g>
<!-- siblings_0_0&#45;&gt;Lily II -->
<g id="edge5" class="edge">
<title>siblings_0_0&#45;&gt;Lily II</title>
<path fill="none" stroke="#ccdf32" d="M573,-840.33C573,-833.73 573,-781 573,-781 573,-781 596.56,-781 596.56,-781"/>
<polygon fill="#ccdf32" stroke="#ccdf32" points="604.56,-771 604.56,-791 600.56,-791 600.56,-771 604.56,-771"/>
<polyline fill="none" stroke="#ccdf32" points="606.56,-781 596.56,-781"/>
</g>
<!-- Albus -->
<g id="node7" class="node">
<title>Albus</title>
<polygon fill="white" stroke="#cccccc" points="787,-859 607,-859 607,-823 787,-823 787,-859"/>
<text xml:space="preserve" text-anchor="middle" x="697" y="-836.8" font-family="Helvetica, Arial, sans-serif" font-size="14.00">Albus</text>
</g>
<!-- siblings_0_0&#45;&gt;Albus -->
<g id="edge6" class="edge">
<title>siblings_0_0&#45;&gt;Albus</title>
<path fill="none" stroke="#ccdf32" d="M577.94,-841C577.94,-841 596.74,-841 596.74,-841"/>
<polygon fill="#ccdf32" stroke="#ccdf32" points="604.74,-831 604.74,-851 600.74,-851 600.74,-831 604.74,-831"/>
<polyline fill="none" stroke="#ccdf32" points="606.74,-841 596.74,-841"/>
</g>
<!-- union_0 -->
<g id="node8" class="node">
<title>union_0</title>
<ellipse fill="#d25252" stroke="#cccccc" cx="256.8" cy="-841" rx="3.6" ry="3.6"/>
</g>
<!-- siblings_0 -->
<g id="node11" class="node">
<title>siblings_0</title>
<polygon fill="#d25252" stroke="#cccccc" stroke-width="0" points="296.6,-841.72 289.4,-841.72 289.4,-840.28 296.6,-840.28 296.6,-841.72"/>
</g>
<!-- union_0&#45;&gt;siblings_0 -->
<g id="edge9" class="edge">
<title>union_0&#45;&gt;siblings_0</title>
<path fill="none" stroke="#d25252" d="M260.67,-841C267.82,-841 282.97,-841 289.68,-841"/>
</g>
<!-- James -->
<g id="node9" class="node">
<title>James</title>
<g id="a_node9"><a xlink:href="http://harrypotter.wikia.com/wiki/James_Potter_I" xlink:title="undefined &#10;&#10;">
<polygon fill="white" stroke="#cccccc" points="224.2,-805 44.2,-805 44.2,-769 224.2,-769 224.2,-805"/>
<text xml:space="preserve" text-anchor="middle" x="134.2" y="-782.8" font-family="Helvetica, Arial, sans-serif" font-size="14.00">James</text>
</a>
</g>
</g>
<!-- James&#45;&gt;union_0 -->
<g id="edge7" class="edge">
<title>James&#45;&gt;union_0</title>
<path fill="none" stroke="#d25252" d="M224.41,-793C242.98,-793 257,-793 257,-793 257,-793 257,-825.3 257,-836.91"/>
</g>
<!-- Lily -->
<g id="node10" class="node">
<title>Lily</title>
<g id="a_node10"><a xlink:href="http://harrypotter.wikia.com/wiki/Lily_J._Potter" xlink:title="undefined &#10;&#10;">
<polygon fill="white" stroke="#cccccc" points="224.2,-859 44.2,-859 44.2,-823 224.2,-823 224.2,-859"/>
<text xml:space="preserve" text-anchor="middle" x="134.2" y="-836.8" font-family="Helvetica, Arial, sans-serif" font-size="14.00">Lily</text>
</a>
</g>
</g>
<!-- Lily&#45;&gt;union_0 -->
<g id="edge8" class="edge">
<title>Lily&#45;&gt;union_0</title>
<path fill="none" stroke="#d25252" d="M224.59,-841C237.22,-841 247.71,-841 253.03,-841"/>
</g>
<!-- siblings_0&#45;&gt;Harry -->
<g id="edge10" class="edge">
<title>siblings_0&#45;&gt;Harry</title>
<path fill="none" stroke="#d25252" d="M296.54,-841C296.54,-841 315.34,-841 315.34,-841"/>
<polygon fill="#d25252" stroke="#d25252" points="323.34,-831 323.34,-851 319.34,-851 319.34,-831 323.34,-831"/>
<polyline fill="none" stroke="#d25252" points="325.34,-841 315.34,-841"/>
</g>
<!-- union_1 -->
<g id="node12" class="node">
<title>union_1</title>
<ellipse fill="#629755" stroke="#cccccc" cx="256.8" cy="-696" rx="3.6" ry="3.6"/>
</g>
<!-- siblings_1 -->
<g id="node15" class="node">
<title>siblings_1</title>
<polygon fill="#629755" stroke="#cccccc" stroke-width="0" points="296.6,-696.72 289.4,-696.72 289.4,-695.28 296.6,-695.28 296.6,-696.72"/>
</g>
<!-- union_1&#45;&gt;siblings_1 -->
<g id="edge13" class="edge">
<title>union_1&#45;&gt;siblings_1</title>
<path fill="none" stroke="#629755" d="M260.67,-696C267.82,-696 282.97,-696 289.68,-696"/>
</g>
<!-- Vernon -->
<g id="node13" class="node">
<title>Vernon</title>
<g id="a_node13"><a xlink:title="undefined &#10;&#10;">
<polygon fill="white" stroke="#cccccc" points="224.2,-660 44.2,-660 44.2,-624 224.2,-624 224.2,-660"/>
<text xml:space="preserve" text-anchor="middle" x="134.2" y="-637.8" font-family="Helvetica, Arial, sans-serif" font-size="14.00">Vernon</text>
</a>
</g>
</g>
<!-- Vernon&#45;&gt;union_1 -->
<g id="edge11" class="edge">
<title>Vernon&#45;&gt;union_1</title>
<path fill="none" stroke="#629755" d="M224.63,-642C242.57,-642 256,-642 256,-642 256,-642 256,-679.73 256,-692.12"/>
</g>
<!-- Petunia -->
<g id="node14" class="node">
<title>Petunia</title>
<g id="a_node14"><a xlink:title="undefined &#10;&#10;">
<polygon fill="white" stroke="#cccccc" points="224.2,-714 44.2,-714 44.2,-678 224.2,-678 224.2,-714"/>
<text xml:space="preserve" text-anchor="middle" x="134.2" y="-691.8" font-family="Helvetica, Arial, sans-serif" font-size="14.00">Petunia</text>
</a>
</g>
</g>
<!-- Petunia&#45;&gt;union_1 -->
<g id="edge12" class="edge">
<title>Petunia&#45;&gt;union_1</title>
<path fill="none" stroke="#629755" d="M224.59,-696C237.22,-696 247.71,-696 253.03,-696"/>
</g>
<!-- siblings_1&#45;&gt;Harry -->
<g id="edge15" class="edge">
<title>siblings_1&#45;&gt;Harry</title>
<path fill="none" stroke="#629755" stroke-dasharray="5,2" d="M293,-696.38C293,-704.26 293,-830.2 293,-830.2 293,-830.2 315.21,-830.2 315.21,-830.2"/>
<polygon fill="#629755" stroke="#629755" points="323.21,-820.2 323.21,-840.2 319.21,-840.2 319.21,-820.2 323.21,-820.2"/>
<polyline fill="none" stroke="#629755" points="325.21,-830.2 315.21,-830.2"/>
</g>
<!-- Dudley -->
<g id="node16" class="node">
<title>Dudley</title>
<polygon fill="white" stroke="#cccccc" points="505.6,-714 325.6,-714 325.6,-678 505.6,-678 505.6,-714"/>
<text xml:space="preserve" text-anchor="middle" x="415.6" y="-691.8" font-family="Helvetica, Arial, sans-serif" font-size="14.00">Dudley</text>
</g>
<!-- siblings_1&#45;&gt;Dudley -->
<g id="edge14" class="edge">
<title>siblings_1&#45;&gt;Dudley</title>
<path fill="none" stroke="#629755" d="M296.54,-696C296.54,-696 315.34,-696 315.34,-696"/>
<polygon fill="#629755" stroke="#629755" points="323.34,-686 323.34,-706 319.34,-706 319.34,-686 323.34,-686"/>
<polyline fill="none" stroke="#629755" points="325.34,-696 315.34,-696"/>
</g>
<!-- union_2_0 -->
<g id="node17" class="node">
<title>union_2_0</title>
<ellipse fill="#6897bb" stroke="#cccccc" cx="538.2" cy="-343" rx="3.6" ry="3.6"/>
</g>
<!-- siblings_2_0 -->
<g id="node20" class="node">
<title>siblings_2_0</title>
<polygon fill="#6897bb" stroke="#cccccc" stroke-width="0" points="578,-343.72 570.8,-343.72 570.8,-342.28 578,-342.28 578,-343.72"/>
</g>
<!-- union_2_0&#45;&gt;siblings_2_0 -->
<g id="edge18" class="edge">
<title>union_2_0&#45;&gt;siblings_2_0</title>
<path fill="none" stroke="#6897bb" d="M542.07,-343C549.22,-343 564.37,-343 571.08,-343"/>
</g>
<!-- Bill -->
<g id="node18" class="node">
<title>Bill</title>
<g id="a_node18"><a xlink:href="http://harrypotter.wikia.com/wiki/Bill_Weasley" xlink:title="undefined &#10;&#10;">
<polygon fill="white" stroke="#cccccc" points="505.6,-353 325.6,-353 325.6,-317 505.6,-317 505.6,-353"/>
<text xml:space="preserve" text-anchor="middle" x="415.6" y="-330.8" font-family="Helvetica, Arial, sans-serif" font-size="14.00">Bill</text>
</a>
</g>
</g>
<!-- Bill&#45;&gt;union_2_0 -->
<g id="edge16" class="edge">
<title>Bill&#45;&gt;union_2_0</title>
<path fill="none" stroke="#6897bb" d="M505.99,-343C518.62,-343 529.11,-343 534.43,-343"/>
</g>
<!-- Fleur -->
<g id="node19" class="node">
<title>Fleur</title>
<g id="a_node19"><a xlink:href="http://harrypotter.wikia.com/wiki/Fleur_Delacour" xlink:title="undefined &#10;&#10;">
<polygon fill="white" stroke="#cccccc" points="505.6,-407 325.6,-407 325.6,-371 505.6,-371 505.6,-407"/>
<text xml:space="preserve" text-anchor="middle" x="415.6" y="-384.8" font-family="Helvetica, Arial, sans-serif" font-size="14.00">Fleur</text>
</a>
</g>
</g>
<!-- Fleur&#45;&gt;union_2_0 -->
<g id="edge17" class="edge">
<title>Fleur&#45;&gt;union_2_0</title>
<path fill="none" stroke="#6897bb" d="M506.05,-375C523.77,-375 537,-375 537,-375 537,-375 537,-354.68 537,-346.42"/>
</g>
<!-- Victoire -->
<g id="node21" class="node">
<title>Victoire</title>
<polygon fill="white" stroke="#cccccc" points="787,-415 607,-415 607,-379 787,-379 787,-415"/>
<text xml:space="preserve" text-anchor="middle" x="697" y="-392.8" font-family="Helvetica, Arial, sans-serif" font-size="14.00">Victoire</text>
</g>
<!-- siblings_2_0&#45;&gt;Victoire -->
<g id="edge19" class="edge">
<title>siblings_2_0&#45;&gt;Victoire</title>
<path fill="none" stroke="#6897bb" d="M576,-343.56C576,-349.05 576,-393 576,-393 576,-393 596.53,-393 596.53,-393"/>
<polygon fill="#6897bb" stroke="#6897bb" points="604.53,-383 604.53,-403 600.53,-403 600.53,-383 604.53,-383"/>
<polyline fill="none" stroke="#6897bb" points="606.53,-393 596.53,-393"/>
</g>
<!-- Dominique -->
<g id="node22" class="node">
<title>Dominique</title>
<polygon fill="white" stroke="#cccccc" points="787,-307 607,-307 607,-271 787,-271 787,-307"/>
<text xml:space="preserve" text-anchor="middle" x="697" y="-284.8" font-family="Helvetica, Arial, sans-serif" font-size="14.00">Dominique</text>
</g>
<!-- siblings_2_0&#45;&gt;Dominique -->
<g id="edge20" class="edge">
<title>siblings_2_0&#45;&gt;Dominique</title>
<path fill="none" stroke="#6897bb" d="M573,-342.39C573,-336.46 573,-289 573,-289 573,-289 596.56,-289 596.56,-289"/>
<polygon fill="#6897bb" stroke="#6897bb" points="604.56,-279 604.56,-299 600.56,-299 600.56,-279 604.56,-279"/>
<polyline fill="none" stroke="#6897bb" points="606.56,-289 596.56,-289"/>
</g>
<!-- Louis -->
<g id="node23" class="node">
<title>Louis</title>
<polygon fill="white" stroke="#cccccc" points="787,-361 607,-361 607,-325 787,-325 787,-361"/>
<text xml:space="preserve" text-anchor="middle" x="697" y="-338.8" font-family="Helvetica, Arial, sans-serif" font-size="14.00">Louis</text>
</g>
<!-- siblings_2_0&#45;&gt;Louis -->
<g id="edge21" class="edge">
<title>siblings_2_0&#45;&gt;Louis</title>
<path fill="none" stroke="#6897bb" d="M577.94,-343C577.94,-343 596.74,-343 596.74,-343"/>
<polygon fill="#6897bb" stroke="#6897bb" points="604.74,-333 604.74,-353 600.74,-353 600.74,-333 604.74,-333"/>
<polyline fill="none" stroke="#6897bb" points="606.74,-343 596.74,-343"/>
</g>
<!-- union_2_1 -->
<g id="node24" class="node">
<title>union_2_1</title>
<ellipse fill="#bbb529" stroke="#cccccc" cx="538.2" cy="-470" rx="3.6" ry="3.6"/>
</g>
<!-- George -->
<g id="node25" class="node">
<title>George</title>
<g id="a_node25"><a xlink:href="http://harrypotter.wikia.com/wiki/George_Weasley" xlink:title="undefined &#10;&#10;">
<polygon fill="white" stroke="#cccccc" points="505.6,-461 325.6,-461 325.6,-425 505.6,-425 505.6,-461"/>
<text xml:space="preserve" text-anchor="middle" x="415.6" y="-438.8" font-family="Helvetica, Arial, sans-serif" font-size="14.00">George</text>
</a>
</g>
</g>
<!-- George&#45;&gt;union_2_1 -->
<g id="edge22" class="edge">
<title>George&#45;&gt;union_2_1</title>
<path fill="none" stroke="#bbb529" d="M505.93,-443C524.75,-443 539,-443 539,-443 539,-443 539,-458.83 539,-466.25"/>
</g>
<!-- Angelina -->
<g id="node26" class="node">
<title>Angelina</title>
<polygon fill="white" stroke="#cccccc" points="505.6,-515 325.6,-515 325.6,-479 505.6,-479 505.6,-515"/>
<text xml:space="preserve" text-anchor="middle" x="415.6" y="-492.8" font-family="Helvetica, Arial, sans-serif" font-size="14.00">Angelina</text>
</g>
<!-- Angelina&#45;&gt;union_2_1 -->
<g id="edge23" class="edge">
<title>Angelina&#45;&gt;union_2_1</title>
<path fill="none" stroke="#bbb529" d="M505.93,-497C524.75,-497 539,-497 539,-497 539,-497 539,-481.17 539,-473.75"/>
</g>
<!-- union_2_2 -->
<g id="node27" class="node">
<title>union_2_2</title>
<ellipse fill="#9876aa" stroke="#cccccc" cx="538.2" cy="-208" rx="3.6" ry="3.6"/>
</g>
<!-- siblings_2_2 -->
<g id="node30" class="node">
<title>siblings_2_2</title>
<polygon fill="#9876aa" stroke="#cccccc" stroke-width="0" points="578,-208.72 570.8,-208.72 570.8,-207.28 578,-207.28 578,-208.72"/>
</g>
<!-- union_2_2&#45;&gt;siblings_2_2 -->
<g id="edge26" class="edge">
<title>union_2_2&#45;&gt;siblings_2_2</title>
<path fill="none" stroke="#9876aa" d="M542.07,-208C549.22,-208 564.37,-208 571.08,-208"/>
</g>
<!-- Ron -->
<g id="node28" class="node">
<title>Ron</title>
<g id="a_node28"><a xlink:href="http://harrypotter.wikia.com/wiki/Ronald_Weasley" xlink:title="undefined &#10;&#10;">
<polygon fill="white" stroke="#cccccc" points="505.6,-253 325.6,-253 325.6,-217 505.6,-217 505.6,-253"/>
<text xml:space="preserve" text-anchor="middle" x="415.6" y="-230.8" font-family="Helvetica, Arial, sans-serif" font-size="14.00">Ron</text>
</a>
</g>
</g>
<!-- Ron&#45;&gt;union_2_2 -->
<g id="edge24" class="edge">
<title>Ron&#45;&gt;union_2_2</title>
<path fill="none" stroke="#9876aa" d="M505.84,-241C524.19,-241 538,-241 538,-241 538,-241 538,-220.86 538,-212.05"/>
</g>
<!-- Hermione -->
<g id="node29" class="node">
<title>Hermione</title>
<g id="a_node29"><a xlink:href="http://harrypotter.wikia.com/wiki/Hermione_Granger" xlink:title="undefined &#10;&#10;">
<polygon fill="white" stroke="#cccccc" points="505.6,-199 325.6,-199 325.6,-163 505.6,-163 505.6,-199"/>
<text xml:space="preserve" text-anchor="middle" x="415.6" y="-176.8" font-family="Helvetica, Arial, sans-serif" font-size="14.00">Hermione</text>
</a>
</g>
</g>
<!-- Hermione&#45;&gt;union_2_2 -->
<g id="edge25" class="edge">
<title>Hermione&#45;&gt;union_2_2</title>
<path fill="none" stroke="#9876aa" d="M505.84,-187C524.19,-187 538,-187 538,-187 538,-187 538,-197.85 538,-203.95"/>
</g>
<!-- Rose -->
<g id="node31" class="node">
<title>Rose</title>
<polygon fill="white" stroke="#cccccc" points="787,-199 607,-199 607,-163 787,-163 787,-199"/>
<text xml:space="preserve" text-anchor="middle" x="697" y="-176.8" font-family="Helvetica, Arial, sans-serif" font-size="14.00">Rose</text>
</g>
<!-- siblings_2_2&#45;&gt;Rose -->
<g id="edge27" class="edge">
<title>siblings_2_2&#45;&gt;Rose</title>
<path fill="none" stroke="#9876aa" d="M574,-207.63C574,-204 574,-175 574,-175 574,-175 596.64,-175 596.64,-175"/>
<polygon fill="#9876aa" stroke="#9876aa" points="604.64,-165 604.64,-185 600.64,-185 600.64,-165 604.64,-165"/>
<polyline fill="none" stroke="#9876aa" points="606.64,-175 596.64,-175"/>
</g>
<!-- Hugo -->
<g id="node32" class="node">
<title>Hugo</title>
<polygon fill="white" stroke="#cccccc" points="787,-253 607,-253 607,-217 787,-217 787,-253"/>
<text xml:space="preserve" text-anchor="middle" x="697" y="-230.8" font-family="Helvetica, Arial, sans-serif" font-size="14.00">Hugo</text>
</g>
<!-- siblings_2_2&#45;&gt;Hugo -->
<g id="edge28" class="edge">
<title>siblings_2_2&#45;&gt;Hugo</title>
<path fill="none" stroke="#9876aa" d="M576,-208.52C576,-211.75 576,-229 576,-229 576,-229 596.53,-229 596.53,-229"/>
<polygon fill="#9876aa" stroke="#9876aa" points="604.53,-219 604.53,-239 600.53,-239 600.53,-219 604.53,-219"/>
<polyline fill="none" stroke="#9876aa" points="606.53,-229 596.53,-229"/>
</g>
<!-- union_2 -->
<g id="node33" class="node">
<title>union_2</title>
<ellipse fill="#cc7832" stroke="#cccccc" cx="256.8" cy="-443" rx="3.6" ry="3.6"/>
</g>
<!-- siblings_2 -->
<g id="node36" class="node">
<title>siblings_2</title>
<polygon fill="#cc7832" stroke="#cccccc" stroke-width="0" points="296.6,-443.72 289.4,-443.72 289.4,-442.28 296.6,-442.28 296.6,-443.72"/>
</g>
<!-- union_2&#45;&gt;siblings_2 -->
<g id="edge31" class="edge">
<title>union_2&#45;&gt;siblings_2</title>
<path fill="none" stroke="#cc7832" d="M260.67,-443C267.82,-443 282.97,-443 289.68,-443"/>
</g>
<!-- Arthur -->
<g id="node34" class="node">
<title>Arthur</title>
<g id="a_node34"><a xlink:href="http://harrypotter.wikia.com/wiki/Arthur_Weasley" xlink:title="undefined &#10;&#10;">
<polygon fill="white" stroke="#cccccc" points="224.2,-434 44.2,-434 44.2,-398 224.2,-398 224.2,-434"/>
<text xml:space="preserve" text-anchor="middle" x="134.2" y="-411.8" font-family="Helvetica, Arial, sans-serif" font-size="14.00">Arthur</text>
</a>
</g>
</g>
<!-- Arthur&#45;&gt;union_2 -->
<g id="edge29" class="edge">
<title>Arthur&#45;&gt;union_2</title>
<path fill="none" stroke="#cc7832" d="M224.41,-429.5C242.98,-429.5 257,-429.5 257,-429.5 257,-429.5 257,-435.04 257,-439.02"/>
</g>
<!-- Molly -->
<g id="node35" class="node">
<title>Molly</title>
<g id="a_node35"><a xlink:href="http://harrypotter.wikia.com/wiki/Molly_Weasley" xlink:title="undefined &#10;&#10;">
<polygon fill="white" stroke="#cccccc" points="224.2,-488 44.2,-488 44.2,-452 224.2,-452 224.2,-488"/>
<text xml:space="preserve" text-anchor="middle" x="134.2" y="-465.8" font-family="Helvetica, Arial, sans-serif" font-size="14.00">Molly</text>
</a>
</g>
</g>
<!-- Molly&#45;&gt;union_2 -->
<g id="edge30" class="edge">
<title>Molly&#45;&gt;union_2</title>
<path fill="none" stroke="#cc7832" d="M224.5,-456.5C243.54,-456.5 258,-456.5 258,-456.5 258,-456.5 258,-450.69 258,-446.69"/>
</g>
<!-- siblings_2&#45;&gt;Ginny -->
<g id="edge32" class="edge">
<title>siblings_2&#45;&gt;Ginny</title>
<path fill="none" stroke="#cc7832" d="M294,-443.52C294,-450.42 294,-524 294,-524 294,-524 311,-524 311,-524 311,-524 311,-781 311,-781 311,-781 315.11,-781 315.11,-781"/>
<polygon fill="#cc7832" stroke="#cc7832" points="323.11,-771 323.11,-791 319.11,-791 319.11,-771 323.11,-771"/>
<polyline fill="none" stroke="#cc7832" points="325.11,-781 315.11,-781"/>
</g>
<!-- siblings_2&#45;&gt;Bill -->
<g id="edge33" class="edge">
<title>siblings_2&#45;&gt;Bill</title>
<path fill="none" stroke="#cc7832" d="M293,-442.31C293,-433.11 293,-335 293,-335 293,-335 315.21,-335 315.21,-335"/>
<polygon fill="#cc7832" stroke="#cc7832" points="323.21,-325 323.21,-345 319.21,-345 319.21,-325 323.21,-325"/>
<polyline fill="none" stroke="#cc7832" points="325.21,-335 315.21,-335"/>
</g>
<!-- siblings_2&#45;&gt;George -->
<g id="edge34" class="edge">
<title>siblings_2&#45;&gt;George</title>
<path fill="none" stroke="#cc7832" d="M296.54,-443C296.54,-443 315.34,-443 315.34,-443"/>
<polygon fill="#cc7832" stroke="#cc7832" points="323.34,-433 323.34,-453 319.34,-453 319.34,-433 323.34,-433"/>
<polyline fill="none" stroke="#cc7832" points="325.34,-443 315.34,-443"/>
</g>
<!-- siblings_2&#45;&gt;Ron -->
<g id="edge35" class="edge">
<title>siblings_2&#45;&gt;Ron</title>
<path fill="none" stroke="#cc7832" d="M291,-442.4C291,-430.2 291,-235 291,-235 291,-235 315.38,-235 315.38,-235"/>
<polygon fill="#cc7832" stroke="#cc7832" points="323.38,-225 323.38,-245 319.38,-245 319.38,-225 323.38,-225"/>
<polyline fill="none" stroke="#cc7832" points="325.38,-235 315.38,-235"/>
</g>
<!-- Fred -->
<g id="node37" class="node">
<title>Fred</title>
<g id="a_node37"><a xlink:href="http://harrypotter.wikia.com/wiki/Fred_Weasley" xlink:title="undefined &#10;&#10;">
<polygon fill="white" stroke="#cccccc" points="505.6,-569 325.6,-569 325.6,-533 505.6,-533 505.6,-569"/>
<text xml:space="preserve" text-anchor="middle" x="415.6" y="-546.8" font-family="Helvetica, Arial, sans-serif" font-size="14.00">Fred</text>
</a>
</g>
</g>
<!-- siblings_2&#45;&gt;Fred -->
<g id="edge36" class="edge">
<title>siblings_2&#45;&gt;Fred</title>
<path fill="none" stroke="#cc7832" d="M292,-443.69C292,-452.89 292,-551 292,-551 292,-551 315.12,-551 315.12,-551"/>
<polygon fill="#cc7832" stroke="#cc7832" points="323.12,-541 323.12,-561 319.12,-561 319.12,-541 323.12,-541"/>
<polyline fill="none" stroke="#cc7832" points="325.12,-551 315.12,-551"/>
</g>
<!-- union_3 -->
<g id="node38" class="node">
<title>union_3</title>
<ellipse fill="#efc090" stroke="#cccccc" cx="256.8" cy="-90" rx="3.6" ry="3.6"/>
</g>
<!-- siblings_3 -->
<g id="node41" class="node">
<title>siblings_3</title>
<polygon fill="#efc090" stroke="#cccccc" stroke-width="0" points="296.6,-90.72 289.4,-90.72 289.4,-89.28 296.6,-89.28 296.6,-90.72"/>
</g>
<!-- union_3&#45;&gt;siblings_3 -->
<g id="edge39" class="edge">
<title>union_3&#45;&gt;siblings_3</title>
<path fill="none" stroke="#efc090" d="M260.67,-90C267.82,-90 282.97,-90 289.68,-90"/>
</g>
<!-- Mr Granger -->
<g id="node39" class="node">
<title>Mr Granger</title>
<g id="a_node39"><a xlink:title="undefined &#10;&#10;">
<polygon fill="white" stroke="#cccccc" points="224.2,-54 44.2,-54 44.2,-18 224.2,-18 224.2,-54"/>
<text xml:space="preserve" text-anchor="middle" x="134.2" y="-31.8" font-family="Helvetica, Arial, sans-serif" font-size="14.00">Mr Granger</text>
</a>
</g>
</g>
<!-- Mr Granger&#45;&gt;union_3 -->
<g id="edge37" class="edge">
<title>Mr Granger&#45;&gt;union_3</title>
<path fill="none" stroke="#efc090" d="M224.41,-36C242.98,-36 257,-36 257,-36 257,-36 257,-73.73 257,-86.12"/>
</g>
<!-- Mrs Granger -->
<g id="node40" class="node">
<title>Mrs Granger</title>
<g id="a_node40"><a xlink:title="undefined &#10;&#10;">
<polygon fill="white" stroke="#cccccc" points="224.2,-108 44.2,-108 44.2,-72 224.2,-72 224.2,-108"/>
<text xml:space="preserve" text-anchor="middle" x="134.2" y="-85.8" font-family="Helvetica, Arial, sans-serif" font-size="14.00">Mrs Granger</text>
</a>
</g>
</g>
<!-- Mrs Granger&#45;&gt;union_3 -->
<g id="edge38" class="edge">
<title>Mrs Granger&#45;&gt;union_3</title>
<path fill="none" stroke="#efc090" d="M224.59,-90C237.22,-90 247.71,-90 253.03,-90"/>
</g>
<!-- siblings_3&#45;&gt;Hermione -->
<g id="edge40" class="edge">
<title>siblings_3&#45;&gt;Hermione</title>
<path fill="none" stroke="#efc090" d="M295,-90.58C295,-98.33 295,-181 295,-181 295,-181 315.12,-181 315.12,-181"/>
<polygon fill="#efc090" stroke="#efc090" points="323.12,-171 323.12,-191 319.12,-191 319.12,-171 323.12,-171"/>
<polyline fill="none" stroke="#efc090" points="325.12,-181 315.12,-181"/>
</g>
<!-- siblings_4 -->
<g id="node42" class="node">
<title>siblings_4</title>
<polygon fill="#d25252" stroke="#cccccc" stroke-width="0" points="15.2,-768.72 8,-768.72 8,-767.28 15.2,-767.28 15.2,-768.72"/>
</g>
<!-- siblings_4&#45;&gt;Lily -->
<g id="edge41" class="edge">
<title>siblings_4&#45;&gt;Lily</title>
<path fill="none" stroke="#d25252" d="M12,-768.47C12,-774.68 12,-841 12,-841 12,-841 33.79,-841 33.79,-841"/>
<polygon fill="#d25252" stroke="#d25252" points="41.79,-831 41.79,-851 37.79,-851 37.79,-831 41.79,-831"/>
<polyline fill="none" stroke="#d25252" points="43.79,-841 33.79,-841"/>
</g>
<!-- siblings_4&#45;&gt;Petunia -->
<g id="edge42" class="edge">
<title>siblings_4&#45;&gt;Petunia</title>
<path fill="none" stroke="#d25252" d="M12,-767.54C12,-761.41 12,-696 12,-696 12,-696 33.79,-696 33.79,-696"/>
<polygon fill="#d25252" stroke="#d25252" points="41.79,-686 41.79,-706 37.79,-706 37.79,-686 41.79,-686"/>
<polyline fill="none" stroke="#d25252" points="43.79,-696 33.79,-696"/>
</g>
</g>
</svg>
