<?xml version="1.0" encoding="UTF-8" standalone="no"?>
<!DOCTYPE svg PUBLIC "-//W3C//DTD SVG 1.1//EN"
 "http://www.w3.org/Graphics/SVG/1.1/DTD/svg11.dtd">
<!-- Generated by graphviz version 13.1.1 (0)
 -->
<!-- Title: G Pages: 1 -->
<svg width="767pt" height="274pt"
 viewBox="0.00 0.00 767.00 274.00" xmlns="http://www.w3.org/2000/svg" xmlns:xlink="http://www.w3.org/1999/xlink">
<g id="graph0" class="graph" transform="scale(1 1) rotate(0) translate(4 270)">
<title>G</title>
<polygon fill="white" stroke="none" points="-4,4 -4,-270 762.8,-270 762.8,4 -4,4"/>
<g id="clust1" class="cluster">
<title>cluster_family_0</title>
</g>
<g id="clust4" class="cluster">
<title>cluster_family_1</title>
</g>
<g id="clust7" class="cluster">
<title>cluster_family_2</title>
</g>
<!-- union_0 -->
<g id="node1" class="node">
<title>union_0</title>
<ellipse fill="#d25252" stroke="#cccccc" cx="502" cy="-183" rx="3.6" ry="3.6"/>
</g>
<!-- siblings_0 -->
<g id="node4" class="node">
<title>siblings_0</title>
<polygon fill="#d25252" stroke="#cccccc" stroke-width="0" points="541.8,-183.72 534.6,-183.72 534.6,-182.28 541.8,-182.28 541.8,-183.72"/>
</g>
<!-- union_0&#45;&gt;siblings_0 -->
<g id="edge3" class="edge">
<title>union_0&#45;&gt;siblings_0</title>
<path fill="none" stroke="#d25252" d="M505.87,-183C513.02,-183 528.17,-183 534.88,-183"/>
</g>
<!-- Homer -->
<g id="node2" class="node">
<title>Homer</title>
<g id="a_node2"><a xlink:title="undefined &#10;&#10;">
<polygon fill="white" stroke="#cccccc" points="469.4,-206 289.4,-206 289.4,-170 469.4,-170 469.4,-206"/>
<text xml:space="preserve" text-anchor="start" x="352.96" y="-183.8" font-family="Helvetica, Arial, sans-serif" font-size="14.00">Homer ♂</text>
</a>
</g>
</g>
<!-- Homer&#45;&gt;union_0 -->
<g id="edge1" class="edge">
<title>Homer&#45;&gt;union_0</title>
<path fill="none" stroke="#d25252" d="M469.79,-183C482.42,-183 492.91,-183 498.23,-183"/>
</g>
<!-- Marge -->
<g id="node3" class="node">
<title>Marge</title>
<g id="a_node3"><a xlink:title="undefined &#10;&#10;">
<polygon fill="white" stroke="#cccccc" points="469.4,-152 289.4,-152 289.4,-116 469.4,-116 469.4,-152"/>
<text xml:space="preserve" text-anchor="start" x="354.13" y="-129.8" font-family="Helvetica, Arial, sans-serif" font-size="14.00">Marge ♀</text>
</a>
</g>
</g>
<!-- Marge&#45;&gt;union_0 -->
<g id="edge2" class="edge">
<title>Marge&#45;&gt;union_0</title>
<path fill="none" stroke="#d25252" d="M469.64,-136.67C487.99,-136.67 501.8,-136.67 501.8,-136.67 501.8,-136.67 501.8,-167.84 501.8,-179.05"/>
</g>
<!-- Bart -->
<g id="node5" class="node">
<title>Bart</title>
<g id="a_node5"><a xlink:title="undefined &#10;&#10;">
<polygon fill="white" stroke="#cccccc" points="750.8,-147 570.8,-147 570.8,-111 750.8,-111 750.8,-147"/>
<text xml:space="preserve" text-anchor="start" x="641.75" y="-124.8" font-family="Helvetica, Arial, sans-serif" font-size="14.00">Bart ♂</text>
</a>
</g>
</g>
<!-- siblings_0&#45;&gt;Bart -->
<g id="edge4" class="edge">
<title>siblings_0&#45;&gt;Bart</title>
<path fill="none" stroke="#d25252" d="M537.8,-182.36C537.8,-176.14 537.8,-126.33 537.8,-126.33 537.8,-126.33 560.44,-126.33 560.44,-126.33"/>
<polygon fill="#d25252" stroke="#d25252" points="568.44,-116.33 568.44,-136.33 564.44,-136.33 564.44,-116.33 568.44,-116.33"/>
<polyline fill="none" stroke="#d25252" points="570.44,-126.33 560.44,-126.33"/>
</g>
<!-- Lisa -->
<g id="node6" class="node">
<title>Lisa</title>
<g id="a_node6"><a xlink:title="undefined &#10;&#10;">
<polygon fill="white" stroke="#cccccc" points="750.8,-201 570.8,-201 570.8,-165 750.8,-165 750.8,-201"/>
<text xml:space="preserve" text-anchor="start" x="641.75" y="-178.8" font-family="Helvetica, Arial, sans-serif" font-size="14.00">Lisa ♀</text>
</a>
</g>
</g>
<!-- siblings_0&#45;&gt;Lisa -->
<g id="edge5" class="edge">
<title>siblings_0&#45;&gt;Lisa</title>
<path fill="none" stroke="#d25252" d="M541.74,-183C541.74,-183 560.54,-183 560.54,-183"/>
<polygon fill="#d25252" stroke="#d25252" points="568.54,-173 568.54,-193 564.54,-193 564.54,-173 568.54,-173"/>
<polyline fill="none" stroke="#d25252" points="570.54,-183 560.54,-183"/>
</g>
<!-- Maggie -->
<g id="node7" class="node">
<title>Maggie</title>
<g id="a_node7"><a xlink:title="undefined &#10;&#10;">
<polygon fill="white" stroke="#cccccc" points="750.8,-255 570.8,-255 570.8,-219 750.8,-219 750.8,-255"/>
<text xml:space="preserve" text-anchor="start" x="632.42" y="-232.8" font-family="Helvetica, Arial, sans-serif" font-size="14.00">Maggie ♀</text>
</a>
</g>
</g>
<!-- siblings_0&#45;&gt;Maggie -->
<g id="edge6" class="edge">
<title>siblings_0&#45;&gt;Maggie</title>
<path fill="none" stroke="#d25252" d="M537.8,-183.56C537.8,-189.05 537.8,-233 537.8,-233 537.8,-233 560.44,-233 560.44,-233"/>
<polygon fill="#d25252" stroke="#d25252" points="568.44,-223 568.44,-243 564.44,-243 564.44,-223 568.44,-223"/>
<polyline fill="none" stroke="#d25252" points="570.44,-233 560.44,-233"/>
</g>
<!-- union_1 -->
<g id="node8" class="node">
<title>union_1</title>
<ellipse fill="#ccdf32" stroke="#cccccc" cx="220.6" cy="-188" rx="3.6" ry="3.6"/>
</g>
<!-- siblings_1 -->
<g id="node11" class="node">
<title>siblings_1</title>
<polygon fill="#ccdf32" stroke="#cccccc" stroke-width="0" points="260.4,-188.72 253.2,-188.72 253.2,-187.28 260.4,-187.28 260.4,-188.72"/>
</g>
<!-- union_1&#45;&gt;siblings_1 -->
<g id="edge9" class="edge">
<title>union_1&#45;&gt;siblings_1</title>
<path fill="none" stroke="#ccdf32" d="M224.47,-188C231.62,-188 246.77,-188 253.48,-188"/>
</g>
<!-- Abe -->
<g id="node9" class="node">
<title>Abe</title>
<g id="a_node9"><a xlink:title="undefined &#10;&#10;">
<polygon fill="white" stroke="#cccccc" points="188,-204 8,-204 8,-168 188,-168 188,-204"/>
<text xml:space="preserve" text-anchor="start" x="79.34" y="-181.8" font-family="Helvetica, Arial, sans-serif" font-size="14.00">Abe ♂</text>
</a>
</g>
</g>
<!-- Abe&#45;&gt;union_1 -->
<g id="edge7" class="edge">
<title>Abe&#45;&gt;union_1</title>
<path fill="none" stroke="#ccdf32" d="M188.39,-188C201.02,-188 211.51,-188 216.83,-188"/>
</g>
<!-- Mona -->
<g id="node10" class="node">
<title>Mona</title>
<g id="a_node10"><a xlink:title="undefined &#10;&#10;">
<polygon fill="white" stroke="#cccccc" points="188,-258 8,-258 8,-222 188,-222 188,-258"/>
<text xml:space="preserve" text-anchor="start" x="74.67" y="-235.8" font-family="Helvetica, Arial, sans-serif" font-size="14.00">Mona ♀</text>
</a>
</g>
</g>
<!-- Mona&#45;&gt;union_1 -->
<g id="edge8" class="edge">
<title>Mona&#45;&gt;union_1</title>
<path fill="none" stroke="#ccdf32" d="M188.21,-244C206.78,-244 220.8,-244 220.8,-244 220.8,-244 220.8,-204.87 220.8,-192.03"/>
</g>
<!-- siblings_1&#45;&gt;Homer -->
<g id="edge10" class="edge">
<title>siblings_1&#45;&gt;Homer</title>
<path fill="none" stroke="#ccdf32" d="M260.34,-188C260.34,-188 279.14,-188 279.14,-188"/>
<polygon fill="#ccdf32" stroke="#ccdf32" points="287.14,-178 287.14,-198 283.14,-198 283.14,-178 287.14,-178"/>
<polyline fill="none" stroke="#ccdf32" points="289.14,-188 279.14,-188"/>
</g>
<!-- union_2 -->
<g id="node12" class="node">
<title>union_2</title>
<ellipse fill="#629755" stroke="#cccccc" cx="220.6" cy="-80" rx="3.6" ry="3.6"/>
</g>
<!-- siblings_2 -->
<g id="node15" class="node">
<title>siblings_2</title>
<polygon fill="#629755" stroke="#cccccc" stroke-width="0" points="260.4,-80.72 253.2,-80.72 253.2,-79.28 260.4,-79.28 260.4,-80.72"/>
</g>
<!-- union_2&#45;&gt;siblings_2 -->
<g id="edge13" class="edge">
<title>union_2&#45;&gt;siblings_2</title>
<path fill="none" stroke="#629755" d="M224.47,-80C231.62,-80 246.77,-80 253.48,-80"/>
</g>
<!-- Jacqueline -->
<g id="node13" class="node">
<title>Jacqueline</title>
<g id="a_node13"><a xlink:title="undefined &#10;&#10;">
<polygon fill="white" stroke="#cccccc" points="188,-44 8,-44 8,-8 188,-8 188,-44"/>
<text xml:space="preserve" text-anchor="start" x="61.46" y="-21.8" font-family="Helvetica, Arial, sans-serif" font-size="14.00">Jacqueline ♀</text>
</a>
</g>
</g>
<!-- Jacqueline&#45;&gt;union_2 -->
<g id="edge11" class="edge">
<title>Jacqueline&#45;&gt;union_2</title>
<path fill="none" stroke="#629755" d="M188.21,-32C206.78,-32 220.8,-32 220.8,-32 220.8,-32 220.8,-64.3 220.8,-75.91"/>
</g>
<!-- Clancy -->
<g id="node14" class="node">
<title>Clancy</title>
<g id="a_node14"><a xlink:title="undefined &#10;&#10;">
<polygon fill="white" stroke="#cccccc" points="188,-98 8,-98 8,-62 188,-62 188,-98"/>
<text xml:space="preserve" text-anchor="start" x="71.17" y="-75.8" font-family="Helvetica, Arial, sans-serif" font-size="14.00">Clancy ♂</text>
</a>
</g>
</g>
<!-- Clancy&#45;&gt;union_2 -->
<g id="edge12" class="edge">
<title>Clancy&#45;&gt;union_2</title>
<path fill="none" stroke="#629755" d="M188.39,-80C201.02,-80 211.51,-80 216.83,-80"/>
</g>
<!-- siblings_2&#45;&gt;Marge -->
<g id="edge14" class="edge">
<title>siblings_2&#45;&gt;Marge</title>
<path fill="none" stroke="#629755" d="M256.8,-80.61C256.8,-86.54 256.8,-134 256.8,-134 256.8,-134 279.01,-134 279.01,-134"/>
<polygon fill="#629755" stroke="#629755" points="287.01,-124 287.01,-144 283.01,-144 283.01,-124 287.01,-124"/>
<polyline fill="none" stroke="#629755" points="289.01,-134 279.01,-134"/>
</g>
<!-- Patty -->
<g id="node16" class="node">
<title>Patty</title>
<g id="a_node16"><a xlink:title="undefined &#10;&#10;">
<polygon fill="white" stroke="#cccccc" points="469.4,-44 289.4,-44 289.4,-8 469.4,-8 469.4,-44"/>
<text xml:space="preserve" text-anchor="start" x="358.01" y="-21.8" font-family="Helvetica, Arial, sans-serif" font-size="14.00">Patty ♀</text>
</a>
</g>
</g>
<!-- siblings_2&#45;&gt;Patty -->
<g id="edge15" class="edge">
<title>siblings_2&#45;&gt;Patty</title>
<path fill="none" stroke="#629755" d="M256.8,-79.33C256.8,-72.73 256.8,-20 256.8,-20 256.8,-20 279.01,-20 279.01,-20"/>
<polygon fill="#629755" stroke="#629755" points="287.01,-10 287.01,-30 283.01,-30 283.01,-10 287.01,-10"/>
<polyline fill="none" stroke="#629755" points="289.01,-20 279.01,-20"/>
</g>
<!-- Selma -->
<g id="node17" class="node">
<title>Selma</title>
<g id="a_node17"><a xlink:title="undefined &#10;&#10;">
<polygon fill="white" stroke="#cccccc" points="469.4,-98 289.4,-98 289.4,-62 469.4,-62 469.4,-98"/>
<text xml:space="preserve" text-anchor="start" x="354.9" y="-75.8" font-family="Helvetica, Arial, sans-serif" font-size="14.00">Selma ♀</text>
</a>
</g>
</g>
<!-- siblings_2&#45;&gt;Selma -->
<g id="edge16" class="edge">
<title>siblings_2&#45;&gt;Selma</title>
<path fill="none" stroke="#629755" d="M260.34,-80C260.34,-80 279.14,-80 279.14,-80"/>
<polygon fill="#629755" stroke="#629755" points="287.14,-70 287.14,-90 283.14,-90 283.14,-70 287.14,-70"/>
<polyline fill="none" stroke="#629755" points="289.14,-80 279.14,-80"/>
</g>
</g>
</svg>
