<svg width="767pt" height="307pt" viewBox="0.00 0.00 766.80 307.00" xmlns="http://www.w3.org/2000/svg" xmlns:xlink="http://www.w3.org/1999/xlink">
<g id="graph0" class="graph" transform="scale(1 1) rotate(0) translate(4 303)">
<title>G</title>
<polygon fill="white" stroke="none" points="-4,4 -4,-303 762.8,-303 762.8,4 -4,4"/>
<g id="clust1" class="cluster">
<title>cluster_family_0</title>
</g>
<g id="clust4" class="cluster">
<title>cluster_family_1</title>
</g>
<g id="clust7" class="cluster">
<title>cluster_family_2</title>
</g>
<!-- union_0 -->
<g id="node1" class="node">
<title>union_0</title>
<ellipse fill="#d25252" stroke="#cccccc" cx="502" cy="-206" rx="3.6" ry="3.6"/>
</g>
<!-- siblings_0 -->
<g id="node4" class="node">
<title>siblings_0</title>
<polygon fill="#d25252" stroke="#cccccc" stroke-width="0" points="541.8,-206.72 534.6,-206.72 534.6,-205.28 541.8,-205.28 541.8,-206.72"/>
</g>
<!-- union_0&#45;&gt;siblings_0 -->
<g id="edge3" class="edge">
<title>union_0-&gt;siblings_0</title>
<path fill="none" stroke="#d25252" d="M505.87,-206C513.02,-206 528.17,-206 534.88,-206"/>
</g>
<!-- Homer -->
<g id="node2" class="node">
<title>Homer</title>
<g id="a_node2"><a xlink:title="Homer Homer Simpson&#xA;&#xA;&#xA;">
<polygon fill="white" stroke="#cccccc" points="469.4,-233.4 289.4,-233.4 289.4,-190.6 469.4,-190.6 469.4,-233.4"/>
<text text-anchor="start" x="352.96" y="-214.8" font-family="Helvetica, Arial, sans-serif" font-size="14.00">Homer ♂</text>
<text text-anchor="start" x="346.76" y="-199.6" font-family="Helvetica, Arial, sans-serif" font-size="10.00" fill="#aaaaaa">Homer Simpson</text>
</a>
</g>
</g>
<!-- Homer&#45;&gt;union_0 -->
<g id="edge1" class="edge">
<title>Homer-&gt;union_0</title>
<path fill="none" stroke="#d25252" d="M469.79,-206C482.42,-206 492.91,-206 498.23,-206"/>
</g>
<!-- Marge -->
<g id="node3" class="node">
<title>Marge</title>
<g id="a_node3"><a xlink:title="Marge Marjorie Jacqueline Simpson&#xA;&#xA;&#xA;">
<polygon fill="white" stroke="#cccccc" points="469.4,-172.4 289.4,-172.4 289.4,-129.6 469.4,-129.6 469.4,-172.4"/>
<text text-anchor="start" x="354.13" y="-153.8" font-family="Helvetica, Arial, sans-serif" font-size="14.00">Marge ♀</text>
<text text-anchor="start" x="320.8" y="-138.6" font-family="Helvetica, Arial, sans-serif" font-size="10.00" fill="#aaaaaa">Marjorie Jacqueline Simpson</text>
</a>
</g>
</g>
<!-- Marge&#45;&gt;union_0 -->
<g id="edge2" class="edge">
<title>Marge-&gt;union_0</title>
<path fill="none" stroke="#d25252" d="M469.79,-154.13C488.16,-154.13 502,-154.13 502,-154.13 502,-154.13 502,-189.7 502,-201.93"/>
</g>
<!-- Bart -->
<g id="node5" class="node">
<title>Bart</title>
<g id="a_node5"><a xlink:title="Bart Bart Simpson&#xA;&#xA;&#xA;">
<polygon fill="white" stroke="#cccccc" points="750.8,-166.4 570.8,-166.4 570.8,-123.6 750.8,-123.6 750.8,-166.4"/>
<text text-anchor="start" x="641.75" y="-147.8" font-family="Helvetica, Arial, sans-serif" font-size="14.00">Bart ♂</text>
<text text-anchor="start" x="633.44" y="-132.6" font-family="Helvetica, Arial, sans-serif" font-size="10.00" fill="#aaaaaa">Bart Simpson</text>
</a>
</g>
</g>
<!-- siblings_0&#45;&gt;Bart -->
<g id="edge4" class="edge">
<title>siblings_0-&gt;Bart</title>
<path fill="none" stroke="#d25252" d="M538.2,-205.59C538.2,-200.13 538.2,-141.87 538.2,-141.87 538.2,-141.87 560.41,-141.87 560.41,-141.87"/>
<polygon fill="#d25252" stroke="#d25252" points="568.41,-131.87 568.41,-151.87 564.41,-151.87 564.41,-131.87 568.41,-131.87"/>
<polyline fill="none" stroke="#d25252" points="570.41,-141.87 560.41,-141.87"/>
</g>
<!-- Lisa -->
<g id="node6" class="node">
<title>Lisa</title>
<g id="a_node6"><a xlink:title="Lisa Lisa Simpson&#xA;&#xA;&#xA;">
<polygon fill="white" stroke="#cccccc" points="750.8,-227.4 570.8,-227.4 570.8,-184.6 750.8,-184.6 750.8,-227.4"/>
<text text-anchor="start" x="641.75" y="-208.8" font-family="Helvetica, Arial, sans-serif" font-size="14.00">Lisa ♀</text>
<text text-anchor="start" x="633.44" y="-193.6" font-family="Helvetica, Arial, sans-serif" font-size="10.00" fill="#aaaaaa">Lisa Simpson</text>
</a>
</g>
</g>
<!-- siblings_0&#45;&gt;Lisa -->
<g id="edge5" class="edge">
<title>siblings_0-&gt;Lisa</title>
<path fill="none" stroke="#d25252" d="M541.74,-206C541.74,-206 560.54,-206 560.54,-206"/>
<polygon fill="#d25252" stroke="#d25252" points="568.54,-196 568.54,-216 564.54,-216 564.54,-196 568.54,-196"/>
<polyline fill="none" stroke="#d25252" points="570.54,-206 560.54,-206"/>
</g>
<!-- Maggie -->
<g id="node7" class="node">
<title>Maggie</title>
<g id="a_node7"><a xlink:title="Maggie Maggie Simpson&#xA;&#xA;&#xA;">
<polygon fill="white" stroke="#cccccc" points="750.8,-288.4 570.8,-288.4 570.8,-245.6 750.8,-245.6 750.8,-288.4"/>
<text text-anchor="start" x="632.42" y="-269.8" font-family="Helvetica, Arial, sans-serif" font-size="14.00">Maggie ♀</text>
<text text-anchor="start" x="626.77" y="-254.6" font-family="Helvetica, Arial, sans-serif" font-size="10.00" fill="#aaaaaa">Maggie Simpson</text>
</a>
</g>
</g>
<!-- siblings_0&#45;&gt;Maggie -->
<g id="edge6" class="edge">
<title>siblings_0-&gt;Maggie</title>
<path fill="none" stroke="#d25252" d="M538.2,-206.63C538.2,-212.77 538.2,-261.87 538.2,-261.87 538.2,-261.87 560.41,-261.87 560.41,-261.87"/>
<polygon fill="#d25252" stroke="#d25252" points="568.41,-251.87 568.41,-271.87 564.41,-271.87 564.41,-251.87 568.41,-251.87"/>
<polyline fill="none" stroke="#d25252" points="570.41,-261.87 560.41,-261.87"/>
</g>
<!-- union_1 -->
<g id="node8" class="node">
<title>union_1</title>
<ellipse fill="#ccdf32" stroke="#cccccc" cx="220.6" cy="-212" rx="3.6" ry="3.6"/>
</g>
<!-- siblings_1 -->
<g id="node11" class="node">
<title>siblings_1</title>
<polygon fill="#ccdf32" stroke="#cccccc" stroke-width="0" points="260.4,-212.72 253.2,-212.72 253.2,-211.28 260.4,-211.28 260.4,-212.72"/>
</g>
<!-- union_1&#45;&gt;siblings_1 -->
<g id="edge9" class="edge">
<title>union_1-&gt;siblings_1</title>
<path fill="none" stroke="#ccdf32" d="M224.47,-212C231.62,-212 246.77,-212 253.48,-212"/>
</g>
<!-- Abe -->
<g id="node9" class="node">
<title>Abe</title>
<g id="a_node9"><a xlink:title="Abe Abe Simpson&#xA;&#xA;&#xA;">
<polygon fill="white" stroke="#cccccc" points="188,-230.4 8,-230.4 8,-187.6 188,-187.6 188,-230.4"/>
<text text-anchor="start" x="79.34" y="-211.8" font-family="Helvetica, Arial, sans-serif" font-size="14.00">Abe ♂</text>
<text text-anchor="start" x="70.92" y="-196.6" font-family="Helvetica, Arial, sans-serif" font-size="10.00" fill="#aaaaaa">Abe Simpson</text>
</a>
</g>
</g>
<!-- Abe&#45;&gt;union_1 -->
<g id="edge7" class="edge">
<title>Abe-&gt;union_1</title>
<path fill="none" stroke="#ccdf32" d="M188.39,-212C201.02,-212 211.51,-212 216.83,-212"/>
</g>
<!-- Mona -->
<g id="node10" class="node">
<title>Mona</title>
<g id="a_node10"><a xlink:title="Mona Mona Simpson&#xA;&#xA;&#xA;">
<polygon fill="white" stroke="#cccccc" points="188,-291.4 8,-291.4 8,-248.6 188,-248.6 188,-291.4"/>
<text text-anchor="start" x="74.67" y="-272.8" font-family="Helvetica, Arial, sans-serif" font-size="14.00">Mona ♀</text>
<text text-anchor="start" x="67.58" y="-257.6" font-family="Helvetica, Arial, sans-serif" font-size="10.00" fill="#aaaaaa">Mona Simpson</text>
</a>
</g>
</g>
<!-- Mona&#45;&gt;union_1 -->
<g id="edge8" class="edge">
<title>Mona-&gt;union_1</title>
<path fill="none" stroke="#ccdf32" d="M188.39,-275.13C206.76,-275.13 220.6,-275.13 220.6,-275.13 220.6,-275.13 220.6,-229.35 220.6,-215.76"/>
</g>
<!-- siblings_1&#45;&gt;Homer -->
<g id="edge10" class="edge">
<title>siblings_1-&gt;Homer</title>
<path fill="none" stroke="#ccdf32" d="M260.34,-212C260.34,-212 279.14,-212 279.14,-212"/>
<polygon fill="#ccdf32" stroke="#ccdf32" points="287.14,-202 287.14,-222 283.14,-222 283.14,-202 287.14,-202"/>
<polyline fill="none" stroke="#ccdf32" points="289.14,-212 279.14,-212"/>
</g>
<!-- union_2 -->
<g id="node12" class="node">
<title>union_2</title>
<ellipse fill="#629755" stroke="#cccccc" cx="220.6" cy="-90" rx="3.6" ry="3.6"/>
</g>
<!-- siblings_2 -->
<g id="node15" class="node">
<title>siblings_2</title>
<polygon fill="#629755" stroke="#cccccc" stroke-width="0" points="260.4,-90.72 253.2,-90.72 253.2,-89.28 260.4,-89.28 260.4,-90.72"/>
</g>
<!-- union_2&#45;&gt;siblings_2 -->
<g id="edge13" class="edge">
<title>union_2-&gt;siblings_2</title>
<path fill="none" stroke="#629755" d="M224.47,-90C231.62,-90 246.77,-90 253.48,-90"/>
</g>
<!-- Jacqueline -->
<g id="node13" class="node">
<title>Jacqueline</title>
<g id="a_node13"><a xlink:title="Jacqueline Jacqueline Bouvier&#xA;&#xA;&#xA;">
<polygon fill="white" stroke="#cccccc" points="188,-50.4 8,-50.4 8,-7.6 188,-7.6 188,-50.4"/>
<text text-anchor="start" x="61.46" y="-31.8" font-family="Helvetica, Arial, sans-serif" font-size="14.00">Jacqueline ♀</text>
<text text-anchor="start" x="59.54" y="-16.6" font-family="Helvetica, Arial, sans-serif" font-size="10.00" fill="#aaaaaa">Jacqueline Bouvier</text>
</a>
</g>
</g>
<!-- Jacqueline&#45;&gt;union_2 -->
<g id="edge11" class="edge">
<title>Jacqueline-&gt;union_2</title>
<path fill="none" stroke="#629755" d="M188.39,-36.13C206.76,-36.13 220.6,-36.13 220.6,-36.13 220.6,-36.13 220.6,-73.77 220.6,-86.13"/>
</g>
<!-- Clancy -->
<g id="node14" class="node">
<title>Clancy</title>
<g id="a_node14"><a xlink:title="Clancy Clancy Bouvier&#xA;&#xA;&#xA;">
<polygon fill="white" stroke="#cccccc" points="188,-111.4 8,-111.4 8,-68.6 188,-68.6 188,-111.4"/>
<text text-anchor="start" x="71.17" y="-92.8" font-family="Helvetica, Arial, sans-serif" font-size="14.00">Clancy ♂</text>
<text text-anchor="start" x="66.48" y="-77.6" font-family="Helvetica, Arial, sans-serif" font-size="10.00" fill="#aaaaaa">Clancy Bouvier</text>
</a>
</g>
</g>
<!-- Clancy&#45;&gt;union_2 -->
<g id="edge12" class="edge">
<title>Clancy-&gt;union_2</title>
<path fill="none" stroke="#629755" d="M188.39,-90C201.02,-90 211.51,-90 216.83,-90"/>
</g>
<!-- siblings_2&#45;&gt;Marge -->
<g id="edge14" class="edge">
<title>siblings_2-&gt;Marge</title>
<path fill="none" stroke="#629755" d="M256.8,-90.69C256.8,-97.39 256.8,-151 256.8,-151 256.8,-151 279.01,-151 279.01,-151"/>
<polygon fill="#629755" stroke="#629755" points="287.01,-141 287.01,-161 283.01,-161 283.01,-141 287.01,-141"/>
<polyline fill="none" stroke="#629755" points="289.01,-151 279.01,-151"/>
</g>
<!-- Patty -->
<g id="node16" class="node">
<title>Patty</title>
<g id="a_node16"><a xlink:title="Patty Patty Bouvier&#xA;&#xA;&#xA;">
<polygon fill="white" stroke="#cccccc" points="469.4,-50.4 289.4,-50.4 289.4,-7.6 469.4,-7.6 469.4,-50.4"/>
<text text-anchor="start" x="358.01" y="-31.8" font-family="Helvetica, Arial, sans-serif" font-size="14.00">Patty ♀</text>
<text text-anchor="start" x="351.76" y="-16.6" font-family="Helvetica, Arial, sans-serif" font-size="10.00" fill="#aaaaaa">Patty Bouvier</text>
</a>
</g>
</g>
<!-- siblings_2&#45;&gt;Patty -->
<g id="edge15" class="edge">
<title>siblings_2-&gt;Patty</title>
<path fill="none" stroke="#629755" d="M256.8,-89.56C256.8,-83.76 256.8,-21.87 256.8,-21.87 256.8,-21.87 279.01,-21.87 279.01,-21.87"/>
<polygon fill="#629755" stroke="#629755" points="287.01,-11.87 287.01,-31.87 283.01,-31.87 283.01,-11.87 287.01,-11.87"/>
<polyline fill="none" stroke="#629755" points="289.01,-21.87 279.01,-21.87"/>
</g>
<!-- Selma -->
<g id="node17" class="node">
<title>Selma</title>
<g id="a_node17"><a xlink:title="Selma Selma Bouvier&#xA;&#xA;&#xA;">
<polygon fill="white" stroke="#cccccc" points="469.4,-111.4 289.4,-111.4 289.4,-68.6 469.4,-68.6 469.4,-111.4"/>
<text text-anchor="start" x="354.9" y="-92.8" font-family="Helvetica, Arial, sans-serif" font-size="14.00">Selma ♀</text>
<text text-anchor="start" x="349.54" y="-77.6" font-family="Helvetica, Arial, sans-serif" font-size="10.00" fill="#aaaaaa">Selma Bouvier</text>
</a>
</g>
</g>
<!-- siblings_2&#45;&gt;Selma -->
<g id="edge16" class="edge">
<title>siblings_2-&gt;Selma</title>
<path fill="none" stroke="#629755" d="M260.34,-90C260.34,-90 279.14,-90 279.14,-90"/>
<polygon fill="#629755" stroke="#629755" points="287.14,-80 287.14,-100 283.14,-100 283.14,-80 287.14,-80"/>
<polyline fill="none" stroke="#629755" points="289.14,-90 279.14,-90"/>
</g>
</g>
</svg>